<svg xmlns="http://www.w3.org/2000/svg" width="32" height="32"><path fill="#6da544" d="M0 5.333h32v21.334H0V5.333z"/><path fill="#f0f0f0" d="M11.472 18.087c0 .768.608 1.391 1.358 1.391h4.075c0 .64.507 1.159 1.132 1.159h1.358c.625 0 1.132-.519 1.132-1.159v-1.391H11.47zm9.17-6.725v3.246a.918.918 0 01-.906.928v1.391c1.248 0 2.264-1.04 2.264-2.319v-3.246h-1.358zm-9.736 3.246a.918.918 0 01-.906.928v1.391c1.248 0 2.264-1.04 2.264-2.319v-3.246h-1.358v3.246z"/><path fill="#f0f0f0" d="M18.604 11.362h1.358v3.246h-1.358v-3.246zm-2.038 1.855c0 .128-.102.232-.226.232s-.226-.104-.226-.232v-1.855h-1.358v1.855c0 .128-.102.232-.226.232s-.226-.104-.226-.232v-1.855h-1.358v1.855c0 .895.711 1.623 1.585 1.623.337 0 .649-.108.906-.292a1.55 1.55 0 001.106.279.91.91 0 01-.879.709v1.391c1.249 0 2.264-1.04 2.264-2.319v-3.246H16.57v1.855z"/><path fill="#f0f0f0" d="M12.943 15.536h2.038v1.391h-2.038v-1.391z"/></svg>