<svg xmlns="http://www.w3.org/2000/svg" width="32" height="32"><path fill="#d80027" d="M0 5.334h32v21.333H0V5.334z"/><path fill="#338af3" d="M0 5.334h32v7.111H0V5.334z"/><path fill="#6da544" d="M0 19.555h32v7.111H0v-7.111z"/><path fill="#f0f0f0" d="M16.2 18.6a2.6 2.6 0 111.237-4.887 3.2 3.2 0 100 4.575 2.593 2.593 0 01-1.237.313z"/><path fill="#f0f0f0" d="M18.2 14.2l.344.969.928-.441-.441.928L20 16l-.969.344.441.928-.928-.441-.344.969-.344-.969-.928.441.441-.928L16.4 16l.969-.344-.441-.928.928.441z"/></svg>