<svg xmlns="http://www.w3.org/2000/svg" width="32" height="32"><path fill="#fff7ee" d="M32 25.889a.676.676 0 01-.674.674H.673a.676.676 0 01-.674-.674V6.112c0-.37.303-.674.674-.674h30.653c.37 0 .674.303.674.674v19.777z"/><path fill="#e02424" d="M31.326 5.438H13.085V7.47h18.914V6.112a.676.676 0 00-.674-.674zm-18.24 7.637v1.268c0 .42-.342.764-.759.764h19.674v-2.032H13.087zM0 16.893h32v2.032H0v-2.032z"/><path opacity=".1" d="M0 16.893h2.055v2.032H0v-2.032z"/><path fill="#e02424" d="M0 20.712h32v2.032H0v-2.032zm32 5.177v-1.358H0v1.358c0 .371.303.674.674.674h30.653c.37 0 .674-.303.674-.674zM13.085 9.257h18.914v2.032H13.085V9.257z"/><path fill="#0853a4" d="M.674 5.438A.676.676 0 000 6.112v8.995h13.045a.764.764 0 00.759-.764V5.438H.674z"/><path opacity=".1" d="M2.796 5.438H.674A.676.676 0 000 6.112v8.995h2.122V6.112c0-.37.303-.674.674-.674z"/><path fill="#fff" d="M2.982 8.13a.103.103 0 01-.045-.011l-.184-.099-.184.099a.09.09 0 01-.045.011.097.097 0 01-.095-.116l.035-.21-.149-.148a.1.1 0 01.054-.168l.205-.031.092-.191c.016-.034.05-.055.086-.055s.07.021.086.055l.092.191.205.031c.036.005.067.031.078.067s.002.075-.025.101l-.148.148.035.21a.103.103 0 01-.038.097.1.1 0 01-.057.019zm0 1.714a.103.103 0 01-.045-.011l-.184-.099-.184.099a.09.09 0 01-.045.011.097.097 0 01-.095-.116l.035-.21-.149-.148a.1.1 0 01.054-.168l.205-.03.092-.191c.016-.034.05-.055.086-.055s.07.021.086.055l.092.191.205.03c.036.006.067.032.078.067s.002.075-.025.101l-.148.148.035.21a.102.102 0 01-.038.097.093.093 0 01-.057.019zm0 1.714a.103.103 0 01-.045-.011l-.184-.099-.184.099a.09.09 0 01-.045.011.098.098 0 01-.095-.116l.035-.21-.149-.148a.1.1 0 01.054-.168l.205-.03.092-.191c.016-.034.05-.055.086-.055s.07.021.086.055l.092.191.205.03c.036.005.067.032.078.067s.002.075-.025.101l-.148.148.035.21a.103.103 0 01-.038.097.1.1 0 01-.057.019zm0 1.714a.103.103 0 01-.045-.011l-.184-.099-.184.099a.09.09 0 01-.045.011.098.098 0 01-.095-.116l.035-.21-.149-.148a.1.1 0 01.054-.168l.205-.03.092-.191c.016-.034.05-.055.086-.055s.07.021.086.055l.092.191.205.03c.036.005.067.032.078.067s.002.075-.025.101l-.148.148.035.21a.102.102 0 01-.038.097.093.093 0 01-.057.019zM1.897 7.274a.103.103 0 01-.045-.011l-.184-.099-.184.099a.09.09 0 01-.045.011.098.098 0 01-.095-.116l.035-.21L1.23 6.8a.1.1 0 01.054-.168l.205-.03.092-.191c.016-.034.05-.055.086-.055s.07.021.086.055l.092.191.205.03c.036.005.067.032.078.067s.002.075-.024.101l-.149.148.035.21a.103.103 0 01-.038.097.093.093 0 01-.057.019zm0 1.713a.103.103 0 01-.045-.011l-.184-.099-.184.099a.09.09 0 01-.045.011.098.098 0 01-.095-.116l.035-.21-.149-.148a.1.1 0 01.054-.168l.205-.031.092-.191c.016-.034.05-.055.086-.055s.07.021.086.055l.092.191.205.031c.036.005.067.031.078.067s.002.075-.024.101l-.149.148.035.21a.103.103 0 01-.038.097.1.1 0 01-.057.019zm0 1.714a.103.103 0 01-.045-.011l-.184-.099-.184.099a.09.09 0 01-.045.011.098.098 0 01-.095-.116l.035-.21-.149-.148a.1.1 0 01.054-.168l.205-.03.092-.191c.016-.034.05-.055.086-.055s.07.021.086.055l.092.191.205.03c.036.005.067.031.078.067s.002.075-.024.101l-.149.148.035.21a.102.102 0 01-.038.097.1.1 0 01-.057.019zm0 1.714a.103.103 0 01-.045-.011l-.184-.099-.184.099a.09.09 0 01-.045.011.098.098 0 01-.095-.116l.035-.21-.149-.148a.1.1 0 01.054-.168l.205-.03.092-.191c.016-.034.05-.055.086-.055s.07.021.086.055l.092.191.205.03c.036.005.067.031.078.067s.002.075-.024.101l-.149.148.035.21a.103.103 0 01-.038.097.093.093 0 01-.057.019zm0 1.713a.103.103 0 01-.045-.011l-.184-.099-.184.099a.09.09 0 01-.045.011.098.098 0 01-.095-.116l.035-.21-.149-.148a.1.1 0 01.054-.168l.205-.03.092-.191c.016-.034.05-.055.086-.055s.07.021.086.055l.092.191.205.03c.036.005.067.031.078.067s.002.075-.024.101l-.149.148.035.21a.102.102 0 01-.038.097.093.093 0 01-.057.019zM5.09 8.13a.103.103 0 01-.045-.011l-.184-.099-.184.099a.09.09 0 01-.045.011.097.097 0 01-.095-.116l.035-.21-.149-.148a.1.1 0 01.054-.168l.205-.031.092-.191c.016-.034.05-.055.086-.055s.07.021.086.055l.092.191.205.031c.036.005.067.031.078.067s.002.075-.024.101l-.149.148.035.21a.103.103 0 01-.038.097.1.1 0 01-.057.019zm0 1.714a.103.103 0 01-.045-.011l-.184-.099-.184.099a.09.09 0 01-.045.011.097.097 0 01-.095-.116l.035-.21-.149-.148a.1.1 0 01.054-.168l.205-.03.092-.191c.016-.034.05-.055.086-.055s.07.021.086.055l.092.191.205.03a.1.1 0 01.054.168l-.149.148.035.21a.102.102 0 01-.038.097.093.093 0 01-.057.019zm0 1.714a.103.103 0 01-.045-.011l-.184-.099-.184.099a.09.09 0 01-.045.011.098.098 0 01-.095-.116l.035-.21-.149-.148a.1.1 0 01.054-.168l.205-.03.092-.191c.016-.034.05-.055.086-.055s.07.021.086.055l.092.191.205.03c.036.005.067.032.078.067s.002.075-.024.101l-.149.148.035.21a.103.103 0 01-.038.097.1.1 0 01-.057.019zm0 1.714a.103.103 0 01-.045-.011l-.184-.099-.184.099a.09.09 0 01-.045.011.098.098 0 01-.095-.116l.035-.21-.149-.148a.1.1 0 01.054-.168l.205-.03.092-.191c.016-.034.05-.055.086-.055s.07.021.086.055l.092.191.205.03c.036.005.067.032.078.067s.002.075-.024.101l-.149.148.035.21a.102.102 0 01-.038.097.093.093 0 01-.057.019zM4.004 7.274a.103.103 0 01-.045-.011l-.184-.099-.184.099a.09.09 0 01-.045.011.098.098 0 01-.095-.116l.035-.21-.148-.148a.1.1 0 01.054-.168l.205-.03.092-.191a.096.096 0 01.173 0l.092.191.205.03c.036.005.067.032.078.067s.002.075-.024.101l-.149.148.035.21a.103.103 0 01-.038.097.093.093 0 01-.057.019zm0 1.713a.103.103 0 01-.045-.011l-.184-.099-.184.099a.09.09 0 01-.045.011.098.098 0 01-.095-.116l.035-.21-.148-.148a.1.1 0 01.054-.168l.205-.031.092-.191a.096.096 0 01.173 0l.092.191.205.031c.036.005.067.031.078.067s.002.075-.024.101l-.149.148.035.21a.103.103 0 01-.038.097.1.1 0 01-.057.019zm0 1.714a.103.103 0 01-.045-.011l-.184-.099-.184.099a.09.09 0 01-.045.011.098.098 0 01-.095-.116l.035-.21-.148-.148a.1.1 0 01.054-.168l.205-.03.092-.191a.096.096 0 01.173 0l.092.191.205.03c.036.005.067.031.078.067s.002.075-.024.101l-.149.148.035.21a.102.102 0 01-.038.097.1.1 0 01-.057.019zm0 1.714a.103.103 0 01-.045-.011l-.184-.099-.184.099a.09.09 0 01-.045.011.098.098 0 01-.095-.116l.035-.21-.148-.148a.1.1 0 01.054-.168l.205-.03.092-.191a.096.096 0 01.173 0l.092.191.205.03c.036.005.067.031.078.067s.002.075-.024.101l-.149.148.035.21a.103.103 0 01-.038.097.093.093 0 01-.057.019zm0 1.713a.103.103 0 01-.045-.011l-.184-.099-.184.099a.09.09 0 01-.045.011.098.098 0 01-.095-.116l.035-.21-.148-.148a.1.1 0 01.054-.168l.205-.03.092-.191a.096.096 0 01.173 0l.092.191.205.03c.036.005.067.031.078.067s.002.075-.024.101l-.149.148.035.21a.102.102 0 01-.038.097.093.093 0 01-.057.019zM7.197 8.13a.103.103 0 01-.045-.011l-.184-.099-.184.099a.088.088 0 01-.045.011.097.097 0 01-.095-.116l.035-.21-.149-.148a.1.1 0 01.054-.168l.205-.031.092-.191c.016-.034.05-.055.086-.055s.07.021.086.055l.092.191.205.031c.036.005.067.031.078.067s.002.075-.024.101l-.149.148.035.21a.103.103 0 01-.038.097.1.1 0 01-.057.019zm0 1.714a.103.103 0 01-.045-.011l-.184-.099-.184.099a.088.088 0 01-.045.011.097.097 0 01-.095-.116l.035-.21-.149-.148a.1.1 0 01.054-.168l.205-.03.092-.191c.016-.034.05-.055.086-.055s.07.021.086.055l.092.191.205.03a.1.1 0 01.054.168l-.149.148.035.21a.102.102 0 01-.038.097.093.093 0 01-.057.019zm0 1.714a.103.103 0 01-.045-.011l-.184-.099-.184.099a.088.088 0 01-.045.011.098.098 0 01-.095-.116l.035-.21-.149-.148a.1.1 0 01.054-.168l.205-.03.092-.191c.016-.034.05-.055.086-.055s.07.021.086.055l.092.191.205.03c.036.005.067.032.078.067s.002.075-.024.101l-.149.148.035.21a.103.103 0 01-.038.097.1.1 0 01-.057.019zm0 1.714a.103.103 0 01-.045-.011l-.184-.099-.184.099a.088.088 0 01-.045.011.098.098 0 01-.095-.116l.035-.21-.149-.148a.1.1 0 01.054-.168l.205-.03.092-.191c.016-.034.05-.055.086-.055s.07.021.086.055l.092.191.205.03c.036.005.067.032.078.067s.002.075-.024.101l-.149.148.035.21a.102.102 0 01-.038.097.093.093 0 01-.057.019zM6.111 7.274a.103.103 0 01-.045-.011l-.184-.099-.184.099a.088.088 0 01-.045.011.098.098 0 01-.095-.116l.035-.21-.149-.148a.1.1 0 01.054-.168l.205-.03.092-.191a.096.096 0 01.173 0l.092.191.205.03a.099.099 0 01.054.168l-.149.148.035.21a.103.103 0 01-.038.097.093.093 0 01-.057.019zm0 1.713a.103.103 0 01-.045-.011l-.184-.099-.184.099a.088.088 0 01-.045.011.098.098 0 01-.095-.116l.035-.21-.149-.148a.1.1 0 01.054-.168l.205-.031.092-.191a.096.096 0 01.173 0l.092.191.205.031c.036.005.066.031.078.067s.002.075-.024.101l-.149.148.035.21a.103.103 0 01-.038.097.1.1 0 01-.057.019zm0 1.714a.103.103 0 01-.045-.011l-.184-.099-.184.099a.088.088 0 01-.045.011.098.098 0 01-.095-.116l.035-.21-.149-.148a.1.1 0 01.054-.168l.205-.03.092-.191a.096.096 0 01.173 0l.092.191.205.03c.036.005.066.031.078.067s.002.075-.024.101l-.149.148.035.21a.102.102 0 01-.038.097.1.1 0 01-.057.019zm0 1.714a.103.103 0 01-.045-.011l-.184-.099-.184.099a.088.088 0 01-.045.011.098.098 0 01-.095-.116l.035-.21-.149-.148a.1.1 0 01.054-.168l.205-.03.092-.191a.096.096 0 01.173 0l.092.191.205.03c.036.005.066.031.078.067s.002.075-.024.101l-.149.148.035.21a.103.103 0 01-.038.097.093.093 0 01-.057.019zm0 1.713a.103.103 0 01-.045-.011l-.184-.099-.184.099a.088.088 0 01-.045.011.098.098 0 01-.095-.116l.035-.21-.149-.148a.1.1 0 01.054-.168l.205-.03.092-.191a.096.096 0 01.173 0l.092.191.205.03c.036.005.066.031.078.067s.002.075-.024.101l-.149.148.035.21a.102.102 0 01-.038.097.093.093 0 01-.057.019zM9.304 8.13a.103.103 0 01-.045-.011l-.184-.099-.184.099a.09.09 0 01-.045.011.097.097 0 01-.095-.116l.035-.21-.149-.148a.1.1 0 01.054-.168l.205-.031.092-.191c.016-.034.05-.055.086-.055s.07.021.086.055l.092.191.205.031c.036.005.066.031.078.067s.002.075-.024.101l-.149.148.035.21a.103.103 0 01-.038.097.1.1 0 01-.056.019zm0 1.714a.103.103 0 01-.045-.011l-.184-.099-.184.099a.09.09 0 01-.045.011.097.097 0 01-.095-.116l.035-.21-.149-.148a.1.1 0 01.054-.168l.205-.03.092-.191c.016-.034.05-.055.086-.055s.07.021.086.055l.092.191.205.03a.1.1 0 01.054.168l-.149.148.035.21a.102.102 0 01-.038.097.092.092 0 01-.056.019zm0 1.714a.103.103 0 01-.045-.011l-.184-.099-.184.099a.09.09 0 01-.045.011.098.098 0 01-.095-.116l.035-.21-.149-.148a.1.1 0 01.054-.168l.205-.03.092-.191c.016-.034.05-.055.086-.055s.07.021.086.055l.092.191.205.03a.099.099 0 01.054.168l-.149.148.035.21a.103.103 0 01-.038.097.1.1 0 01-.056.019zm0 1.714a.103.103 0 01-.045-.011l-.184-.099-.184.099a.09.09 0 01-.045.011.098.098 0 01-.095-.116l.035-.21-.149-.148a.1.1 0 01.054-.168l.205-.03.092-.191c.016-.034.05-.055.086-.055s.07.021.086.055l.092.191.205.03a.099.099 0 01.054.168l-.149.148.035.21a.102.102 0 01-.038.097.092.092 0 01-.056.019zM8.218 7.274a.103.103 0 01-.045-.011l-.184-.099-.184.099a.09.09 0 01-.045.011.098.098 0 01-.095-.116l.035-.21-.149-.148a.1.1 0 01.054-.168l.205-.03.092-.191c.016-.034.05-.055.086-.055s.07.021.086.055l.092.191.205.03c.036.005.067.032.078.067s.002.075-.024.101l-.149.148.035.21a.103.103 0 01-.038.097.093.093 0 01-.057.019zm0 1.713a.103.103 0 01-.045-.011l-.184-.099-.184.099a.09.09 0 01-.045.011.098.098 0 01-.095-.116l.035-.21-.149-.148a.1.1 0 01.054-.168l.205-.031.092-.191c.016-.034.05-.055.086-.055s.07.021.086.055l.092.191.205.031c.036.005.067.031.078.067s.002.075-.024.101l-.149.148.035.21a.103.103 0 01-.038.097.1.1 0 01-.057.019zm0 1.714a.103.103 0 01-.045-.011l-.184-.099-.184.099a.09.09 0 01-.045.011.098.098 0 01-.095-.116l.035-.21-.149-.148a.1.1 0 01.054-.168l.205-.03.092-.191c.016-.034.05-.055.086-.055s.07.021.086.055l.092.191.205.03c.036.005.067.031.078.067s.002.075-.024.101l-.149.148.035.21a.102.102 0 01-.038.097.1.1 0 01-.057.019zm0 1.714a.103.103 0 01-.045-.011l-.184-.099-.184.099a.09.09 0 01-.045.011.098.098 0 01-.095-.116l.035-.21-.149-.148a.1.1 0 01.054-.168l.205-.03.092-.191c.016-.034.05-.055.086-.055s.07.021.086.055l.092.191.205.03c.036.005.067.031.078.067s.002.075-.024.101l-.149.148.035.21a.103.103 0 01-.038.097.093.093 0 01-.057.019zm0 1.713a.103.103 0 01-.045-.011l-.184-.099-.184.099a.09.09 0 01-.045.011.098.098 0 01-.095-.116l.035-.21-.149-.148a.1.1 0 01.054-.168l.205-.03.092-.191c.016-.034.05-.055.086-.055s.07.021.086.055l.092.191.205.03c.036.005.067.031.078.067s.002.075-.024.101l-.149.148.035.21a.102.102 0 01-.038.097.093.093 0 01-.057.019zm3.193-5.998a.103.103 0 01-.045-.011l-.184-.099-.184.099a.09.09 0 01-.045.011.097.097 0 01-.095-.116l.035-.21-.149-.148a.1.1 0 01.054-.168l.205-.031.092-.191c.016-.034.05-.055.086-.055s.07.021.086.055l.092.191.205.031c.036.005.066.031.078.067s.002.075-.024.101l-.149.148.035.21a.103.103 0 01-.038.097.1.1 0 01-.057.019zm0 1.714a.103.103 0 01-.045-.011l-.184-.099-.184.099a.09.09 0 01-.045.011.097.097 0 01-.095-.116l.035-.21-.149-.148a.1.1 0 01.054-.168l.205-.03.092-.191c.016-.034.05-.055.086-.055s.07.021.086.055l.092.191.205.03a.1.1 0 01.054.168l-.149.148.035.21a.102.102 0 01-.038.097.093.093 0 01-.057.019zm0 1.714a.103.103 0 01-.045-.011l-.184-.099-.184.099a.09.09 0 01-.045.011.098.098 0 01-.095-.116l.035-.21-.149-.148a.1.1 0 01.054-.168l.205-.03.092-.191c.016-.034.05-.055.086-.055s.07.021.086.055l.092.191.205.03a.099.099 0 01.054.168l-.149.148.035.21a.103.103 0 01-.038.097.1.1 0 01-.057.019zm0 1.714a.103.103 0 01-.045-.011l-.184-.099-.184.099a.09.09 0 01-.045.011.098.098 0 01-.095-.116l.035-.21-.149-.148a.1.1 0 01.054-.168l.205-.03.092-.191c.016-.034.05-.055.086-.055s.07.021.086.055l.092.191.205.03a.099.099 0 01.054.168l-.149.148.035.21a.102.102 0 01-.038.097.093.093 0 01-.057.019zm-1.086-5.998a.103.103 0 01-.045-.011l-.184-.099-.184.099a.09.09 0 01-.045.011.098.098 0 01-.095-.116l.035-.21-.148-.148a.1.1 0 01.054-.168l.205-.03.092-.191c.016-.034.05-.055.086-.055s.07.021.086.055l.092.191.205.03a.099.099 0 01.054.168l-.149.148.035.21a.103.103 0 01-.038.097.093.093 0 01-.057.019zm0 1.713a.103.103 0 01-.045-.011l-.184-.099-.184.099a.09.09 0 01-.045.011.098.098 0 01-.095-.116l.035-.21-.148-.148a.1.1 0 01.054-.168l.205-.031.092-.191c.016-.034.05-.055.086-.055s.07.021.086.055l.092.191.205.031c.036.005.066.031.078.067s.002.075-.024.101l-.149.148.035.21a.103.103 0 01-.038.097.1.1 0 01-.057.019zm0 1.714a.103.103 0 01-.045-.011l-.184-.099-.184.099a.09.09 0 01-.045.011.098.098 0 01-.095-.116l.035-.21-.148-.148a.1.1 0 01.054-.168l.205-.03.092-.191c.016-.034.05-.055.086-.055s.07.021.086.055l.092.191.205.03c.036.005.066.031.078.067s.002.075-.024.101l-.149.148.035.21a.102.102 0 01-.038.097.1.1 0 01-.057.019zm0 1.714a.103.103 0 01-.045-.011l-.184-.099-.184.099a.09.09 0 01-.045.011.098.098 0 01-.095-.116l.035-.21-.148-.148a.1.1 0 01.054-.168l.205-.03.092-.191c.016-.034.05-.055.086-.055s.07.021.086.055l.092.191.205.03c.036.005.066.031.078.067s.002.075-.024.101l-.149.148.035.21a.103.103 0 01-.038.097.093.093 0 01-.057.019zm0 1.713a.103.103 0 01-.045-.011l-.184-.099-.184.099a.09.09 0 01-.045.011.098.098 0 01-.095-.116l.035-.21-.148-.148a.1.1 0 01.054-.168l.205-.03.092-.191c.016-.034.05-.055.086-.055s.07.021.086.055l.092.191.205.03c.036.005.066.031.078.067s.002.075-.024.101l-.149.148.035.21a.102.102 0 01-.038.097.093.093 0 01-.057.019zm2.108-6.854a.103.103 0 01-.045-.011l-.184-.099-.184.099a.09.09 0 01-.045.011.098.098 0 01-.095-.116l.035-.21-.149-.148a.1.1 0 01.054-.168l.205-.03.092-.191c.016-.034.05-.055.086-.055s.07.021.086.055l.092.191.205.03a.099.099 0 01.054.168l-.149.148.035.21a.103.103 0 01-.038.097.092.092 0 01-.056.019zm0 1.713a.103.103 0 01-.045-.011l-.184-.099-.184.099a.09.09 0 01-.045.011.098.098 0 01-.095-.116l.035-.21-.149-.148a.1.1 0 01.054-.168l.205-.031.092-.191c.016-.034.05-.055.086-.055s.07.021.086.055l.092.191.205.031c.036.005.066.031.078.067s.002.075-.024.101l-.149.148.035.21a.103.103 0 01-.038.097.1.1 0 01-.056.019zm0 1.714a.103.103 0 01-.045-.011l-.184-.099-.184.099a.09.09 0 01-.045.011.098.098 0 01-.095-.116l.035-.21-.149-.148a.1.1 0 01.054-.168l.205-.03.092-.191c.016-.034.05-.055.086-.055s.07.021.086.055l.092.191.205.03c.036.005.066.031.078.067s.002.075-.024.101l-.149.148.035.21a.102.102 0 01-.038.097.1.1 0 01-.056.019zm0 1.714a.103.103 0 01-.045-.011l-.184-.099-.184.099a.09.09 0 01-.045.011.098.098 0 01-.095-.116l.035-.21-.149-.148a.1.1 0 01.054-.168l.205-.03.092-.191c.016-.034.05-.055.086-.055s.07.021.086.055l.092.191.205.03c.036.005.066.031.078.067s.002.075-.024.101l-.149.148.035.21a.103.103 0 01-.038.097.092.092 0 01-.056.019zm0 1.713a.103.103 0 01-.045-.011l-.184-.099-.184.099a.09.09 0 01-.045.011.098.098 0 01-.095-.116l.035-.21-.149-.148a.1.1 0 01.054-.168l.205-.03.092-.191c.016-.034.05-.055.086-.055s.07.021.086.055l.092.191.205.03c.036.005.066.031.078.067s.002.075-.024.101l-.149.148.035.21a.102.102 0 01-.038.097.092.092 0 01-.056.019z"/><path opacity=".1" d="M0 20.712h2.055v2.032H0v-2.032zm2.055 5.177v-1.358H0v1.358c0 .371.303.674.674.674h2.055a.676.676 0 01-.674-.674z"/></svg>