<svg xmlns="http://www.w3.org/2000/svg" width="32" height="32"><path fill="#82afff" d="M32 12.506H0V6.069c0-.305.247-.552.552-.552h30.896c.305 0 .552.247.552.552v6.437z"/><path fill="#73af00" d="M31.448 26.483H.552A.552.552 0 010 25.931v-6.437h32v6.437a.552.552 0 01-.552.552z"/><path fill="#f5f5f5" d="M0 12.506h32v6.988H0v-6.988z"/><path fill="#ff4b55" d="M0 11.885h32v.871H0v-.871zm0 7.358h32v.871H0v-.871z"/><path fill="#f5f5f5" d="M7.093 10.754a2.042 2.042 0 01-2.045-2.039c0-1.13.915-2.047 2.045-2.047h.013a.063.063 0 00.031-.119A2.431 2.431 0 005.97 6.26a2.464 2.464 0 00-2.435 2.481 2.451 2.451 0 003.604 2.131c.058-.031.035-.12-.031-.119h-.015zm1.602-.563l-.091.274-.289.002c-.037 0-.053.048-.023.07l.232.171-.087.275a.039.039 0 00.06.043l.235-.168.235.168c.03.022.071-.008.06-.043l-.087-.275.232-.171a.039.039 0 00-.023-.07l-.289-.002-.091-.274a.04.04 0 00-.074 0zm2.033 0l-.091.274-.289.002c-.037 0-.053.048-.023.07l.232.171-.087.275a.039.039 0 00.06.043l.235-.168.235.168c.03.022.071-.008.06-.043l-.087-.275.232-.171a.039.039 0 00-.023-.07l-.289-.002-.091-.274a.04.04 0 00-.074 0zm0-1.899l-.091.274-.289.002c-.037 0-.053.048-.023.07l.232.171-.087.275a.039.039 0 00.06.043l.235-.168.235.168c.03.022.071-.008.06-.043l-.087-.275.232-.171a.039.039 0 00-.023-.07l-.289-.002-.091-.274a.039.039 0 00-.074 0zm2.034 0l-.091.274-.289.002c-.037 0-.053.048-.023.07l.232.171-.087.275a.039.039 0 00.06.043l.235-.168.235.168c.03.022.071-.008.06-.043l-.087-.275.232-.171a.039.039 0 00-.023-.07l-.289-.002-.091-.274a.039.039 0 00-.074 0zm2.034 0l-.091.274-.289.002c-.037 0-.053.048-.023.07l.232.171-.087.275a.039.039 0 00.06.043l.235-.168.235.168c.03.022.071-.008.06-.043l-.087-.275.232-.171a.039.039 0 00-.023-.07l-.289-.002-.091-.274a.039.039 0 00-.074 0zm2.034 0l-.091.274-.289.002c-.037 0-.053.048-.023.07l.232.171-.087.275a.039.039 0 00.06.043l.235-.168.235.168c.03.022.071-.008.06-.043l-.087-.275.232-.171a.039.039 0 00-.023-.07l-.289-.002-.091-.274a.039.039 0 00-.074 0zm-4.068 1.899l-.091.274-.289.002c-.037 0-.053.048-.023.07l.232.171-.087.275a.039.039 0 00.06.043l.235-.168.235.168c.03.022.071-.008.06-.043l-.087-.275.232-.171a.039.039 0 00-.023-.07l-.289-.002-.091-.274a.04.04 0 00-.074 0zm0-3.797l-.091.274-.289.002c-.037 0-.053.048-.023.07l.232.171-.087.275a.039.039 0 00.06.043l.235-.168.235.168c.03.022.071-.008.06-.043l-.087-.275.232-.171a.039.039 0 00-.023-.07l-.289-.002-.091-.274a.04.04 0 00-.074 0zm2.034 3.797l-.091.274-.289.002c-.037 0-.053.048-.023.07l.232.171-.087.275a.039.039 0 00.06.043l.235-.168.235.168c.03.022.071-.008.06-.043l-.087-.275.232-.171a.039.039 0 00-.023-.07l-.289-.002-.091-.274a.04.04 0 00-.074 0zm2.034 0l-.091.274-.289.002c-.037 0-.053.048-.023.07l.232.171-.087.275a.039.039 0 00.06.043l.235-.168.235.168c.03.022.071-.008.06-.043l-.087-.275.232-.171a.039.039 0 00-.023-.07l-.289-.002-.091-.274a.04.04 0 00-.074 0zm-2.034-3.797l-.091.274-.289.002c-.037 0-.053.048-.023.07l.232.171-.087.275a.039.039 0 00.06.043l.235-.168.235.168c.03.022.071-.008.06-.043l-.087-.275.232-.171a.039.039 0 00-.023-.07l-.289-.002-.091-.274a.04.04 0 00-.074 0zm2.034 0l-.091.274-.289.002c-.037 0-.053.048-.023.07l.232.171-.087.275a.039.039 0 00.06.043l.235-.168.235.168c.03.022.071-.008.06-.043l-.087-.275.232-.171a.039.039 0 00-.023-.07l-.289-.002-.091-.274a.04.04 0 00-.074 0z"/></svg>