<svg xmlns="http://www.w3.org/2000/svg" width="32" height="32"><path fill="#6da544" d="M.035 5.345H32v21.31H.035V5.345z"/><path fill="#a2001d" d="M0 19.706h31.965V5.345H0z"/><path fill="#f0f0f0" d="M6.254 19.706V5.345H0v21.31h6.254z"/><path fill="#a2001d" d="M4.285 15.228l-1.158-2.101 1.158-2.068 1.158 2.068zm-2.316 0L.811 13.127l1.158-2.068 1.158 2.068zm2.316 5.714l-1.158-2.101 1.158-2.068 1.158 2.068zm-2.316 0L.811 18.841l1.158-2.068 1.158 2.068zm2.316 5.713l-1.158-2.101 1.158-2.068 1.158 2.068zm-2.316 0L.811 24.554l1.158-2.068 1.158 2.068zM4.285 9.514L3.127 7.413l1.158-2.068 1.158 2.068zm-2.316 0L.811 7.413l1.158-2.068 1.158 2.068z"/></svg>