<svg version="1.1" id="Layer_1" xmlns="http://www.w3.org/2000/svg" x="0" y="0" viewBox="0 0 512 512" xml:space="preserve"><path d="M512 414.216c0 5.929-4.851 10.779-10.778 10.779H10.779C4.85 424.994 0 420.144 0 414.216V97.784c0-5.928 4.85-10.779 10.779-10.779h490.443c5.928 0 10.778 4.851 10.778 10.779v316.432z" fill="#fff7ee"/><path d="M501.222 87.006h-291.85v32.508H512v-21.73c0-5.928-4.852-10.778-10.778-10.778zM209.371 209.198v20.283c0 6.724-5.467 12.225-12.15 12.225H512v-32.507H209.371v-.001zM0 270.294h512v32.507H0z" fill="#e02424"/><path opacity=".1" d="M0 270.294h32.876v32.507H0z"/><path d="M0 331.389h512v32.507H0zm512 82.827v-21.729H0v21.729c0 5.929 4.85 10.779 10.779 10.779h490.443c5.926-.001 10.778-4.851 10.778-10.779zM209.366 148.104h302.623v32.507H209.366z" fill="#e02424"/><path d="M10.779 87.006C4.85 87.006 0 91.856 0 97.784v143.921h208.716c6.683 0 12.15-5.501 12.15-12.225V87.006H10.779z" fill="#0853a4"/><path d="M44.732 87.006H10.779C4.85 87.006 0 91.856 0 97.784v143.921h33.954V97.784c0-5.928 4.85-10.778 10.778-10.778z" opacity=".1"/><path d="M47.715 130.086c-.243 0-.491-.057-.718-.181l-2.938-1.583-2.939 1.583a1.518 1.518 0 01-1.626-.12 1.594 1.594 0 01-.612-1.544l.56-3.355-2.377-2.373a1.61 1.61 0 01-.39-1.621 1.55 1.55 0 011.247-1.076l3.284-.489 1.471-3.051a1.54 1.54 0 011.383-.882c.587 0 1.124.342 1.383.882l1.47 3.051 3.285.489a1.554 1.554 0 011.246 1.076c.182.572.03 1.2-.392 1.621l-2.376 2.373.56 3.355a1.595 1.595 0 01-.611 1.544c-.269.2-.589.301-.91.301zm0 27.419c-.243 0-.491-.056-.718-.181l-2.938-1.584-2.939 1.584a1.518 1.518 0 01-1.626-.12 1.595 1.595 0 01-.612-1.546l.56-3.353-2.377-2.374a1.607 1.607 0 01-.39-1.62 1.558 1.558 0 011.247-1.077l3.284-.488 1.471-3.051a1.54 1.54 0 011.383-.88c.587 0 1.124.341 1.383.88l1.47 3.051 3.285.488a1.56 1.56 0 011.246 1.077c.182.571.03 1.202-.392 1.62l-2.376 2.374.56 3.353a1.597 1.597 0 01-.611 1.546 1.51 1.51 0 01-.91.301zm0 27.421c-.243 0-.491-.059-.718-.181l-2.938-1.582-2.939 1.582a1.525 1.525 0 01-1.626-.12 1.595 1.595 0 01-.612-1.544l.56-3.354-2.377-2.372a1.614 1.614 0 01-.39-1.623c.181-.572.664-.99 1.247-1.077l3.284-.488 1.471-3.051a1.54 1.54 0 011.383-.879c.587 0 1.124.341 1.383.879l1.47 3.051 3.285.488a1.56 1.56 0 011.246 1.077 1.61 1.61 0 01-.392 1.623l-2.376 2.372.56 3.354a1.597 1.597 0 01-.611 1.544c-.269.2-.589.301-.91.301zm0 27.42c-.243 0-.491-.059-.718-.181l-2.938-1.584-2.939 1.584a1.513 1.513 0 01-1.626-.121 1.595 1.595 0 01-.612-1.545l.56-3.352-2.377-2.374a1.61 1.61 0 01-.39-1.622c.181-.572.664-.99 1.247-1.077l3.284-.488 1.471-3.051c.26-.538.796-.88 1.383-.88s1.124.343 1.383.88l1.47 3.051 3.285.488a1.56 1.56 0 011.246 1.077c.182.572.03 1.202-.392 1.622l-2.376 2.374.56 3.352a1.597 1.597 0 01-.611 1.545 1.511 1.511 0 01-.91.302zm-17.368-95.97c-.243 0-.491-.057-.718-.182l-2.939-1.582-2.938 1.582a1.517 1.517 0 01-1.627-.12 1.59 1.59 0 01-.612-1.545l.559-3.354-2.376-2.373a1.611 1.611 0 01-.39-1.622 1.55 1.55 0 011.247-1.077l3.284-.488 1.47-3.052c.259-.539.795-.88 1.383-.88s1.124.342 1.382.88l1.471 3.052 3.285.488a1.555 1.555 0 011.246 1.077 1.609 1.609 0 01-.39 1.622l-2.377 2.373.561 3.354c.1.592-.138 1.192-.613 1.545-.269.2-.587.302-.908.302zm0 27.42a1.53 1.53 0 01-.718-.181l-2.939-1.583-2.938 1.583a1.513 1.513 0 01-1.627-.12 1.593 1.593 0 01-.612-1.545l.559-3.354-2.376-2.374a1.61 1.61 0 01-.39-1.622 1.55 1.55 0 011.247-1.075l3.284-.489 1.47-3.051c.259-.539.795-.881 1.383-.881s1.124.343 1.382.881l1.471 3.051 3.285.489a1.554 1.554 0 011.246 1.075 1.608 1.608 0 01-.39 1.622l-2.377 2.374.561 3.354c.1.592-.138 1.19-.613 1.545a1.524 1.524 0 01-.908.301zm0 27.42c-.243 0-.491-.059-.718-.18l-2.939-1.584-2.938 1.584a1.524 1.524 0 01-1.627-.121 1.592 1.592 0 01-.612-1.546l.559-3.353-2.376-2.374a1.609 1.609 0 01-.39-1.621c.181-.573.662-.99 1.247-1.076l3.284-.488 1.47-3.053c.259-.538.795-.879 1.383-.879s1.124.341 1.382.879l1.471 3.053 3.285.488a1.555 1.555 0 011.246 1.076 1.607 1.607 0 01-.39 1.621l-2.377 2.374.561 3.353c.1.593-.138 1.193-.613 1.546a1.524 1.524 0 01-.908.301zm0 27.42c-.243 0-.491-.057-.718-.181l-2.939-1.583-2.938 1.583a1.515 1.515 0 01-1.627-.12 1.592 1.592 0 01-.612-1.545l.559-3.354-2.376-2.373a1.61 1.61 0 01-.39-1.623 1.55 1.55 0 011.247-1.075l3.284-.487 1.47-3.052c.259-.539.795-.882 1.383-.882s1.124.343 1.382.882l1.471 3.052 3.285.487a1.556 1.556 0 011.246 1.075 1.61 1.61 0 01-.39 1.623l-2.377 2.373.561 3.354c.1.591-.138 1.191-.613 1.545a1.511 1.511 0 01-.908.301zm0 27.419c-.243 0-.491-.059-.718-.181l-2.939-1.582-2.938 1.582a1.513 1.513 0 01-1.627-.12 1.59 1.59 0 01-.612-1.545l.559-3.353-2.376-2.372a1.613 1.613 0 01-.39-1.623 1.55 1.55 0 011.247-1.077l3.284-.488 1.47-3.05c.259-.539.795-.881 1.383-.881s1.124.342 1.382.881l1.471 3.05 3.285.488a1.553 1.553 0 011.246 1.077 1.61 1.61 0 01-.39 1.623l-2.377 2.372.561 3.353c.1.592-.138 1.193-.613 1.545a1.505 1.505 0 01-.908.301zm51.085-95.969c-.245 0-.492-.057-.719-.181l-2.938-1.583-2.938 1.583a1.518 1.518 0 01-1.627-.12 1.592 1.592 0 01-.612-1.544l.56-3.355-2.377-2.373a1.608 1.608 0 01-.391-1.621c.182-.573.665-.99 1.247-1.076l3.286-.489 1.469-3.051c.259-.54.796-.882 1.383-.882s1.124.342 1.383.882l1.47 3.051 3.285.489a1.552 1.552 0 011.246 1.076c.183.572.03 1.2-.391 1.621l-2.377 2.373.561 3.355c.1.592-.139 1.191-.613 1.544-.269.2-.587.301-.907.301zm0 27.419c-.245 0-.492-.056-.719-.181l-2.938-1.584-2.938 1.584a1.518 1.518 0 01-1.627-.12 1.593 1.593 0 01-.612-1.546l.56-3.353-2.377-2.374a1.605 1.605 0 01-.391-1.62 1.56 1.56 0 011.247-1.077l3.286-.488 1.469-3.051c.259-.539.796-.88 1.383-.88s1.124.341 1.383.88l1.47 3.051 3.285.488a1.558 1.558 0 011.246 1.077c.183.571.03 1.202-.391 1.62l-2.377 2.374.561 3.353c.1.595-.139 1.192-.613 1.546a1.504 1.504 0 01-.907.301zm0 27.421c-.245 0-.492-.059-.719-.181l-2.938-1.582-2.938 1.582a1.525 1.525 0 01-1.627-.12 1.593 1.593 0 01-.612-1.544l.56-3.354-2.377-2.372a1.612 1.612 0 01-.391-1.623c.182-.572.665-.99 1.247-1.077l3.286-.488 1.469-3.051a1.539 1.539 0 011.383-.879c.587 0 1.124.341 1.383.879l1.47 3.051 3.285.488a1.558 1.558 0 011.246 1.077 1.61 1.61 0 01-.391 1.623l-2.377 2.372.561 3.354c.1.591-.139 1.19-.613 1.544-.269.2-.587.301-.907.301zm0 27.42c-.245 0-.492-.059-.719-.181l-2.938-1.584-2.938 1.584a1.513 1.513 0 01-1.627-.121 1.593 1.593 0 01-.612-1.545l.56-3.352-2.377-2.374a1.609 1.609 0 01-.391-1.622c.182-.572.665-.99 1.247-1.077l3.286-.488 1.469-3.051a1.54 1.54 0 011.383-.88c.587 0 1.124.343 1.383.88l1.47 3.051 3.285.488a1.558 1.558 0 011.246 1.077c.183.572.03 1.202-.391 1.622l-2.377 2.374.561 3.352c.1.592-.139 1.192-.613 1.545a1.505 1.505 0 01-.907.302zm-17.369-95.97a1.48 1.48 0 01-.718-.182l-2.939-1.582-2.938 1.582a1.514 1.514 0 01-1.626-.12 1.595 1.595 0 01-.613-1.545l.56-3.354-2.376-2.373a1.612 1.612 0 01-.391-1.622c.181-.573.664-.99 1.247-1.077l3.285-.488 1.469-3.052a1.54 1.54 0 011.384-.88 1.54 1.54 0 011.383.88l1.47 3.052 3.285.488a1.554 1.554 0 011.246 1.077c.182.572.03 1.201-.392 1.622l-2.376 2.373.562 3.354c.1.592-.139 1.192-.614 1.545-.27.2-.589.302-.908.302zm0 27.42c-.245 0-.491-.06-.718-.181l-2.939-1.583-2.938 1.583a1.527 1.527 0 01-1.626-.12 1.597 1.597 0 01-.613-1.545l.56-3.354-2.376-2.374a1.61 1.61 0 01-.391-1.622 1.553 1.553 0 011.247-1.075l3.285-.489 1.469-3.051a1.54 1.54 0 011.384-.881 1.54 1.54 0 011.383.881l1.47 3.051 3.285.489a1.553 1.553 0 011.246 1.075c.182.573.03 1.202-.392 1.622l-2.376 2.374.562 3.354c.1.592-.139 1.19-.614 1.545-.27.199-.589.301-.908.301zm0 27.42c-.245 0-.491-.059-.718-.18l-2.939-1.584-2.938 1.584a1.52 1.52 0 01-1.626-.121 1.597 1.597 0 01-.613-1.546l.56-3.353-2.376-2.374a1.61 1.61 0 01-.391-1.621 1.55 1.55 0 011.247-1.076l3.285-.488 1.469-3.053a1.54 1.54 0 011.384-.879c.587 0 1.124.341 1.383.879l1.47 3.053 3.285.488a1.554 1.554 0 011.246 1.076c.182.572.03 1.201-.392 1.621l-2.376 2.374.562 3.353c.1.593-.139 1.193-.614 1.546-.27.199-.589.301-.908.301zm0 27.42a1.49 1.49 0 01-.718-.181l-2.939-1.583-2.938 1.583a1.513 1.513 0 01-1.626-.12 1.597 1.597 0 01-.613-1.545l.56-3.354-2.376-2.373a1.611 1.611 0 01-.391-1.623 1.553 1.553 0 011.247-1.075l3.285-.487 1.469-3.052c.26-.539.796-.882 1.384-.882a1.54 1.54 0 011.383.882l1.47 3.052 3.285.487a1.555 1.555 0 011.246 1.075c.182.573.03 1.203-.392 1.623l-2.376 2.373.562 3.354c.1.591-.139 1.191-.614 1.545-.27.201-.589.301-.908.301zm0 27.419c-.245 0-.491-.059-.718-.181l-2.939-1.582-2.938 1.582a1.513 1.513 0 01-1.626-.12 1.595 1.595 0 01-.613-1.545l.56-3.353-2.376-2.372a1.613 1.613 0 01-.391-1.623c.181-.573.664-.99 1.247-1.077l3.285-.488 1.469-3.05a1.54 1.54 0 011.384-.881 1.54 1.54 0 011.383.881l1.47 3.05 3.285.488a1.552 1.552 0 011.246 1.077 1.61 1.61 0 01-.392 1.623l-2.376 2.372.562 3.353c.1.592-.139 1.193-.614 1.545-.27.202-.589.301-.908.301zm51.083-95.969c-.243 0-.491-.057-.718-.181l-2.939-1.583-2.938 1.583a1.515 1.515 0 01-1.626-.12 1.594 1.594 0 01-.612-1.544l.559-3.355-2.376-2.373a1.607 1.607 0 01-.39-1.621 1.55 1.55 0 011.247-1.076l3.285-.489 1.47-3.051c.258-.54.795-.882 1.382-.882.588 0 1.124.342 1.383.882l1.47 3.051 3.286.489a1.552 1.552 0 011.246 1.076c.182.572.03 1.2-.391 1.621l-2.377 2.373.562 3.355a1.597 1.597 0 01-.614 1.544c-.27.2-.589.301-.909.301zm0 27.419c-.243 0-.491-.056-.718-.181l-2.939-1.584-2.938 1.584a1.515 1.515 0 01-1.626-.12 1.595 1.595 0 01-.612-1.546l.559-3.353-2.376-2.374a1.604 1.604 0 01-.39-1.62 1.557 1.557 0 011.247-1.077l3.285-.488 1.47-3.051c.258-.539.795-.88 1.382-.88.588 0 1.124.341 1.383.88l1.47 3.051 3.286.488a1.558 1.558 0 011.246 1.077c.182.571.03 1.202-.391 1.62l-2.377 2.374.562 3.353a1.599 1.599 0 01-.614 1.546c-.27.202-.589.301-.909.301zm0 27.421c-.243 0-.491-.059-.718-.181l-2.939-1.582-2.938 1.582a1.522 1.522 0 01-1.626-.12 1.595 1.595 0 01-.612-1.544l.559-3.354-2.376-2.372a1.612 1.612 0 01-.39-1.623c.182-.572.662-.99 1.247-1.077l3.285-.488 1.47-3.051a1.536 1.536 0 011.382-.879c.588 0 1.124.341 1.383.879l1.47 3.051 3.286.488a1.558 1.558 0 011.246 1.077c.182.571.03 1.201-.391 1.623l-2.377 2.372.562 3.354a1.599 1.599 0 01-.614 1.544c-.27.2-.589.301-.909.301zm0 27.42c-.243 0-.491-.059-.718-.181l-2.939-1.584-2.938 1.584a1.51 1.51 0 01-1.626-.121 1.595 1.595 0 01-.612-1.545l.559-3.352-2.376-2.374a1.608 1.608 0 01-.39-1.622c.182-.572.662-.99 1.247-1.077l3.285-.488 1.47-3.051c.258-.538.795-.88 1.382-.88a1.54 1.54 0 011.383.88l1.47 3.051 3.286.488a1.558 1.558 0 011.246 1.077c.182.572.03 1.202-.391 1.622l-2.377 2.374.562 3.352a1.599 1.599 0 01-.614 1.545c-.27.202-.589.302-.909.302zm-17.368-95.97a1.48 1.48 0 01-.718-.182l-2.938-1.582-2.939 1.582a1.514 1.514 0 01-1.626-.12 1.595 1.595 0 01-.613-1.545l.56-3.354-2.376-2.373a1.61 1.61 0 01-.391-1.622c.181-.573.664-.99 1.247-1.077l3.286-.488 1.468-3.052a1.54 1.54 0 011.384-.88c.586 0 1.124.342 1.382.88l1.47 3.052 3.286.488a1.55 1.55 0 011.244 1.077 1.61 1.61 0 01-.391 1.622l-2.376 2.373.561 3.354c.1.592-.139 1.192-.613 1.545-.267.2-.587.302-.907.302zm0 27.42c-.245 0-.491-.06-.718-.181l-2.938-1.583-2.939 1.583a1.527 1.527 0 01-1.626-.12 1.597 1.597 0 01-.613-1.545l.56-3.354-2.376-2.374a1.608 1.608 0 01-.391-1.622 1.553 1.553 0 011.247-1.075l3.286-.489 1.468-3.051a1.542 1.542 0 011.384-.881 1.54 1.54 0 011.382.881l1.47 3.051 3.286.489a1.549 1.549 0 011.244 1.075c.182.573.03 1.202-.391 1.622l-2.376 2.374.561 3.354a1.6 1.6 0 01-.613 1.545 1.52 1.52 0 01-.907.301zm0 27.42c-.245 0-.491-.059-.718-.18l-2.938-1.584-2.939 1.584a1.517 1.517 0 01-1.626-.121 1.597 1.597 0 01-.613-1.546l.56-3.353-2.376-2.374a1.607 1.607 0 01-.391-1.621 1.55 1.55 0 011.247-1.076l3.286-.488 1.468-3.053a1.541 1.541 0 011.384-.879c.586 0 1.124.341 1.382.879l1.47 3.053 3.286.488a1.55 1.55 0 011.244 1.076c.182.572.03 1.201-.391 1.621l-2.376 2.374.561 3.353c.1.593-.139 1.193-.613 1.546a1.52 1.52 0 01-.907.301zm0 27.42a1.49 1.49 0 01-.718-.181l-2.938-1.583-2.939 1.583a1.513 1.513 0 01-1.626-.12 1.597 1.597 0 01-.613-1.545l.56-3.354-2.376-2.373a1.609 1.609 0 01-.391-1.623 1.553 1.553 0 011.247-1.075l3.286-.487 1.468-3.052a1.543 1.543 0 011.384-.882c.586 0 1.124.343 1.382.882l1.47 3.052 3.286.487a1.55 1.55 0 011.244 1.075 1.61 1.61 0 01-.391 1.623l-2.376 2.373.561 3.354a1.6 1.6 0 01-.613 1.545 1.506 1.506 0 01-.907.301zm0 27.419c-.245 0-.491-.059-.718-.181l-2.938-1.582-2.939 1.582a1.513 1.513 0 01-1.626-.12 1.595 1.595 0 01-.613-1.545l.56-3.353-2.376-2.372a1.611 1.611 0 01-.391-1.623c.181-.573.664-.99 1.247-1.077l3.286-.488 1.468-3.05a1.542 1.542 0 011.384-.881c.586 0 1.124.342 1.382.881l1.47 3.05 3.286.488a1.548 1.548 0 011.244 1.077c.182.572.03 1.202-.391 1.623l-2.376 2.372.561 3.353c.1.592-.139 1.193-.613 1.545a1.5 1.5 0 01-.907.301zm51.084-95.969c-.244 0-.492-.057-.719-.181l-2.938-1.583-2.938 1.583a1.515 1.515 0 01-1.627-.12 1.592 1.592 0 01-.612-1.544l.56-3.355-2.377-2.373a1.605 1.605 0 01-.391-1.621 1.55 1.55 0 011.246-1.076l3.285-.489 1.47-3.051a1.54 1.54 0 011.383-.882c.587 0 1.124.342 1.383.882l1.471 3.051 3.284.489a1.548 1.548 0 011.244 1.076c.183.572.031 1.2-.391 1.621l-2.377 2.373.562 3.355a1.597 1.597 0 01-.614 1.544 1.5 1.5 0 01-.904.301zm0 27.419c-.244 0-.492-.056-.719-.181l-2.938-1.584-2.938 1.584a1.515 1.515 0 01-1.627-.12 1.593 1.593 0 01-.612-1.546l.56-3.353-2.377-2.374a1.603 1.603 0 01-.391-1.62 1.557 1.557 0 011.246-1.077l3.285-.488 1.47-3.051a1.54 1.54 0 011.383-.88c.587 0 1.124.341 1.383.88l1.471 3.051 3.284.488a1.554 1.554 0 011.244 1.077 1.6 1.6 0 01-.391 1.62l-2.377 2.374.562 3.353a1.599 1.599 0 01-.614 1.546 1.487 1.487 0 01-.904.301zm0 27.421c-.244 0-.492-.059-.719-.181l-2.938-1.582-2.938 1.582a1.522 1.522 0 01-1.627-.12 1.593 1.593 0 01-.612-1.544l.56-3.354-2.377-2.372a1.61 1.61 0 01-.391-1.623c.181-.572.663-.99 1.246-1.077l3.285-.488 1.47-3.051a1.54 1.54 0 011.383-.879c.587 0 1.124.341 1.383.879l1.471 3.051 3.284.488a1.554 1.554 0 011.244 1.077 1.608 1.608 0 01-.391 1.623l-2.377 2.372.562 3.354a1.599 1.599 0 01-.614 1.544 1.5 1.5 0 01-.904.301zm0 27.42c-.244 0-.492-.059-.719-.181l-2.938-1.584-2.938 1.584a1.51 1.51 0 01-1.627-.121 1.593 1.593 0 01-.612-1.545l.56-3.352-2.377-2.374a1.607 1.607 0 01-.391-1.622c.181-.572.663-.99 1.246-1.077l3.285-.488 1.47-3.051c.26-.538.796-.88 1.383-.88s1.124.343 1.383.88l1.471 3.051 3.284.488a1.554 1.554 0 011.244 1.077 1.605 1.605 0 01-.391 1.622l-2.377 2.374.562 3.352a1.599 1.599 0 01-.614 1.545 1.488 1.488 0 01-.904.302zm-17.369-95.97c-.243 0-.491-.057-.719-.182l-2.938-1.582-2.938 1.582a1.522 1.522 0 01-1.627-.12 1.594 1.594 0 01-.612-1.545l.56-3.354-2.376-2.373a1.61 1.61 0 01-.391-1.622c.182-.573.665-.99 1.247-1.077l3.286-.488 1.469-3.052a1.54 1.54 0 011.383-.88c.588 0 1.124.342 1.383.88l1.47 3.052 3.285.488a1.554 1.554 0 011.246 1.077 1.605 1.605 0 01-.391 1.622l-2.377 2.373.561 3.354c.1.592-.139 1.192-.613 1.545-.268.2-.587.302-.908.302zm0 27.42c-.243 0-.491-.06-.719-.181l-2.938-1.583-2.938 1.583a1.511 1.511 0 01-.717.181c-.321 0-.639-.102-.91-.301a1.597 1.597 0 01-.612-1.545l.56-3.354-2.376-2.374a1.608 1.608 0 01-.391-1.622 1.555 1.555 0 011.247-1.075l3.286-.489 1.469-3.051c.26-.539.797-.881 1.383-.881a1.54 1.54 0 011.383.881l1.47 3.051 3.285.489a1.553 1.553 0 011.246 1.075 1.604 1.604 0 01-.391 1.622l-2.377 2.374.561 3.354a1.6 1.6 0 01-.613 1.545 1.522 1.522 0 01-.908.301zm0 27.42c-.243 0-.491-.059-.719-.18l-2.938-1.584-2.938 1.584a1.522 1.522 0 01-1.627-.121 1.596 1.596 0 01-.612-1.546l.56-3.353-2.376-2.374a1.607 1.607 0 01-.391-1.621c.182-.573.665-.99 1.247-1.076l3.286-.488 1.469-3.053c.26-.538.797-.879 1.383-.879.588 0 1.124.341 1.383.879l1.47 3.053 3.285.488a1.554 1.554 0 011.246 1.076 1.603 1.603 0 01-.391 1.621l-2.377 2.374.561 3.353c.1.593-.139 1.193-.613 1.546a1.522 1.522 0 01-.908.301zm0 27.42c-.243 0-.491-.057-.719-.181l-2.938-1.583-2.938 1.583a1.521 1.521 0 01-1.627-.12 1.596 1.596 0 01-.612-1.545l.56-3.354-2.376-2.373a1.609 1.609 0 01-.391-1.623 1.555 1.555 0 011.247-1.075l3.286-.487 1.469-3.052c.26-.539.797-.882 1.383-.882.588 0 1.124.343 1.383.882l1.47 3.052 3.285.487a1.555 1.555 0 011.246 1.075 1.606 1.606 0 01-.391 1.623l-2.377 2.373.561 3.354a1.6 1.6 0 01-.613 1.545 1.509 1.509 0 01-.908.301zm0 27.419c-.243 0-.491-.059-.719-.181l-2.938-1.582-2.938 1.582a1.521 1.521 0 01-1.627-.12 1.594 1.594 0 01-.612-1.545l.56-3.353-2.376-2.372a1.611 1.611 0 01-.391-1.623c.182-.573.665-.99 1.247-1.077l3.286-.488 1.469-3.05c.26-.539.797-.881 1.383-.881.588 0 1.124.342 1.383.881l1.47 3.05 3.285.488a1.552 1.552 0 011.246 1.077 1.607 1.607 0 01-.391 1.623l-2.377 2.372.561 3.353c.1.592-.139 1.193-.613 1.545a1.502 1.502 0 01-.908.301zm51.084-95.969c-.245 0-.491-.057-.719-.181l-2.939-1.583-2.938 1.583a1.506 1.506 0 01-1.624-.12 1.584 1.584 0 01-.613-1.544l.559-3.355-2.376-2.373a1.61 1.61 0 01-.391-1.621c.182-.573.665-.99 1.247-1.076l3.285-.489 1.47-3.051c.259-.54.795-.882 1.382-.882.589 0 1.126.342 1.384.882l1.47 3.051 3.286.489a1.547 1.547 0 011.243 1.076c.182.572.031 1.2-.391 1.621l-2.376 2.373.561 3.355c.1.592-.138 1.191-.612 1.544-.268.2-.587.301-.908.301zm0 27.419c-.245 0-.491-.056-.719-.181l-2.939-1.584-2.938 1.584a1.506 1.506 0 01-1.624-.12 1.586 1.586 0 01-.613-1.546l.559-3.353-2.376-2.374a1.607 1.607 0 01-.391-1.62 1.56 1.56 0 011.247-1.077l3.285-.488 1.47-3.051c.259-.539.795-.88 1.382-.88.589 0 1.126.341 1.384.88l1.47 3.051 3.286.488a1.553 1.553 0 011.243 1.077 1.603 1.603 0 01-.391 1.62l-2.376 2.374.561 3.353c.1.595-.138 1.192-.612 1.546a1.502 1.502 0 01-.908.301zm0 27.421c-.245 0-.491-.059-.719-.181l-2.939-1.582-2.938 1.582a1.513 1.513 0 01-1.624-.12 1.586 1.586 0 01-.613-1.544l.559-3.354-2.376-2.372a1.614 1.614 0 01-.391-1.623c.182-.572.665-.99 1.247-1.077l3.285-.488 1.47-3.051a1.537 1.537 0 011.382-.879c.589 0 1.126.341 1.384.879l1.47 3.051 3.286.488a1.553 1.553 0 011.243 1.077 1.61 1.61 0 01-.391 1.623l-2.376 2.372.561 3.354c.1.591-.138 1.19-.612 1.544-.268.2-.587.301-.908.301zm0 27.42c-.245 0-.491-.059-.719-.181l-2.939-1.584-2.938 1.584a1.5 1.5 0 01-.717.181 1.5 1.5 0 01-.907-.302 1.586 1.586 0 01-.613-1.545l.559-3.352-2.376-2.374a1.611 1.611 0 01-.391-1.622c.182-.572.665-.99 1.247-1.077l3.285-.488 1.47-3.051c.259-.538.795-.88 1.382-.88a1.54 1.54 0 011.384.88l1.47 3.051 3.286.488a1.553 1.553 0 011.243 1.077 1.607 1.607 0 01-.391 1.622l-2.376 2.374.561 3.352c.1.592-.138 1.192-.612 1.545a1.503 1.503 0 01-.908.302zm-17.369-95.97c-.243 0-.491-.057-.717-.182l-2.939-1.582-2.938 1.582a1.514 1.514 0 01-1.626-.12 1.595 1.595 0 01-.613-1.545l.56-3.354-2.375-2.373a1.61 1.61 0 01-.392-1.622c.182-.573.662-.99 1.247-1.077l3.285-.488 1.47-3.052a1.54 1.54 0 011.383-.88c.588 0 1.124.342 1.383.88l1.47 3.052 3.286.488a1.552 1.552 0 011.244 1.077 1.61 1.61 0 01-.391 1.622l-2.377 2.373.562 3.354c.1.592-.139 1.192-.613 1.545-.27.2-.588.302-.909.302zm0 27.42c-.243 0-.491-.06-.717-.181l-2.939-1.583-2.938 1.583a1.527 1.527 0 01-1.626-.12 1.597 1.597 0 01-.613-1.545l.56-3.354-2.375-2.374a1.609 1.609 0 01-.392-1.622 1.551 1.551 0 011.247-1.075l3.285-.489 1.47-3.051a1.54 1.54 0 011.383-.881 1.54 1.54 0 011.383.881l1.47 3.051 3.286.489a1.552 1.552 0 011.244 1.075c.182.573.03 1.202-.391 1.622l-2.377 2.374.562 3.354a1.6 1.6 0 01-.613 1.545 1.53 1.53 0 01-.909.301zm0 27.42c-.243 0-.491-.059-.717-.18l-2.939-1.584-2.938 1.584a1.52 1.52 0 01-1.626-.121 1.597 1.597 0 01-.613-1.546l.56-3.353-2.375-2.374a1.608 1.608 0 01-.392-1.621 1.55 1.55 0 011.247-1.076l3.285-.488 1.47-3.053a1.54 1.54 0 011.383-.879c.588 0 1.124.341 1.383.879l1.47 3.053 3.286.488a1.553 1.553 0 011.244 1.076c.182.572.03 1.201-.391 1.621l-2.377 2.374.562 3.353c.1.593-.139 1.193-.613 1.546a1.53 1.53 0 01-.909.301zm0 27.42c-.243 0-.491-.057-.717-.181l-2.939-1.583-2.938 1.583a1.513 1.513 0 01-1.626-.12 1.597 1.597 0 01-.613-1.545l.56-3.354-2.375-2.373a1.61 1.61 0 01-.392-1.623 1.551 1.551 0 011.247-1.075l3.285-.487 1.47-3.052c.26-.539.796-.882 1.383-.882.588 0 1.124.343 1.383.882l1.47 3.052 3.286.487a1.553 1.553 0 011.244 1.075 1.61 1.61 0 01-.391 1.623l-2.377 2.373.562 3.354a1.6 1.6 0 01-.613 1.545c-.27.201-.588.301-.909.301zm0 27.419c-.243 0-.491-.059-.717-.181l-2.939-1.582-2.938 1.582a1.513 1.513 0 01-1.626-.12 1.595 1.595 0 01-.613-1.545l.56-3.353-2.375-2.372a1.612 1.612 0 01-.392-1.623c.182-.573.662-.99 1.247-1.077l3.285-.488 1.47-3.05a1.54 1.54 0 011.383-.881c.588 0 1.124.342 1.383.881l1.47 3.05 3.286.488a1.55 1.55 0 011.244 1.077c.182.572.03 1.202-.391 1.623l-2.377 2.372.562 3.353c.1.592-.139 1.193-.613 1.545a1.51 1.51 0 01-.909.301zm33.718-109.679c-.246 0-.493-.057-.719-.182l-2.938-1.582-2.939 1.582a1.522 1.522 0 01-1.627-.12 1.595 1.595 0 01-.613-1.545l.561-3.354-2.378-2.373a1.609 1.609 0 01-.39-1.622c.181-.573.665-.99 1.246-1.077l3.285-.488 1.469-3.052a1.54 1.54 0 011.384-.88c.587 0 1.123.342 1.382.88l1.472 3.052 3.284.488a1.556 1.556 0 011.246 1.077 1.605 1.605 0 01-.39 1.622l-2.379 2.373.563 3.354a1.601 1.601 0 01-.615 1.545 1.51 1.51 0 01-.904.302zm0 27.42c-.246 0-.493-.06-.719-.181l-2.938-1.583-2.939 1.583a1.514 1.514 0 01-1.627-.12 1.597 1.597 0 01-.613-1.545l.561-3.354-2.378-2.374a1.608 1.608 0 01-.39-1.622 1.554 1.554 0 011.246-1.075l3.285-.489 1.469-3.051c.26-.539.797-.881 1.384-.881a1.54 1.54 0 011.382.881l1.472 3.051 3.284.489a1.556 1.556 0 011.246 1.075 1.604 1.604 0 01-.39 1.622l-2.379 2.374.563 3.354a1.603 1.603 0 01-.615 1.545 1.515 1.515 0 01-.904.301zm0 27.42a1.52 1.52 0 01-.719-.18l-2.938-1.584-2.939 1.584a1.525 1.525 0 01-1.627-.121 1.597 1.597 0 01-.613-1.546l.561-3.353-2.378-2.374a1.607 1.607 0 01-.39-1.621c.181-.573.665-.99 1.246-1.076l3.285-.488 1.469-3.053c.26-.538.797-.879 1.384-.879.587 0 1.123.341 1.382.879l1.472 3.053 3.284.488a1.557 1.557 0 011.246 1.076 1.602 1.602 0 01-.39 1.621l-2.379 2.374.563 3.353a1.602 1.602 0 01-.615 1.546 1.515 1.515 0 01-.904.301zm0 27.42c-.246 0-.493-.057-.719-.181l-2.938-1.583-2.939 1.583a1.521 1.521 0 01-1.627-.12 1.597 1.597 0 01-.613-1.545l.561-3.354-2.378-2.373a1.609 1.609 0 01-.39-1.623 1.554 1.554 0 011.246-1.075l3.285-.487 1.469-3.052c.26-.539.797-.882 1.384-.882.587 0 1.123.343 1.382.882l1.472 3.052 3.284.487a1.557 1.557 0 011.246 1.075 1.605 1.605 0 01-.39 1.623l-2.379 2.373.563 3.354a1.603 1.603 0 01-.615 1.545 1.502 1.502 0 01-.904.301zm0 27.419a1.51 1.51 0 01-.719-.181l-2.938-1.582-2.939 1.582a1.514 1.514 0 01-1.627-.12 1.595 1.595 0 01-.613-1.545l.561-3.353-2.378-2.372a1.61 1.61 0 01-.39-1.623c.181-.573.665-.99 1.246-1.077l3.285-.488 1.469-3.05c.26-.539.797-.881 1.384-.881.587 0 1.123.342 1.382.881l1.472 3.05 3.284.488a1.555 1.555 0 011.246 1.077 1.606 1.606 0 01-.39 1.623l-2.379 2.372.563 3.353a1.6 1.6 0 01-.615 1.545 1.495 1.495 0 01-.904.301z" fill="#fff"/><path opacity=".1" d="M0 331.389h32.876v32.507H0zm32.876 82.827v-21.729H0v21.729c0 5.929 4.85 10.779 10.779 10.779h32.876c-5.929-.001-10.779-4.851-10.779-10.779z"/></svg>