<svg aria-hidden="true" style="position:absolute;width:0;height:0" xmlns="http://www.w3.org/2000/svg" overflow="hidden"><defs><symbol id="Flag_of_Armenia" viewBox="0 0 32 32"><path fill="var(--color1, #0052b4)" d="M0 5.334h32v21.333H0V5.334z"/><path fill="var(--color2, #d80027)" d="M0 5.334h32v7.111H0V5.334z"/><path fill="var(--color3, #ff9811)" d="M0 19.555h32v7.111H0v-7.111z"/></symbol><symbol id="Flag_of_Azerbaijan" viewBox="0 0 32 32"><path fill="var(--color2, #d80027)" d="M0 5.334h32v21.333H0V5.334z"/><path fill="var(--color4, #338af3)" d="M0 5.334h32v7.111H0V5.334z"/><path fill="var(--color5, #6da544)" d="M0 19.555h32v7.111H0v-7.111z"/><path fill="var(--color6, #f0f0f0)" d="M16.2 18.6a2.6 2.6 0 111.237-4.887 3.2 3.2 0 100 4.575 2.593 2.593 0 01-1.237.313z"/><path fill="var(--color6, #f0f0f0)" d="M18.2 14.2l.344.969.928-.441-.441.928L20 16l-.969.344.441.928-.928-.441-.344.969-.344-.969-.928.441.441-.928L16.4 16l.969-.344-.441-.928.928.441z"/></symbol><symbol id="Flag_of_Belarus" viewBox="0 0 32 32"><path fill="var(--color5, #6da544)" d="M.035 5.345H32v21.31H.035V5.345z"/><path fill="var(--color7, #a2001d)" d="M0 19.706h31.965V5.345H0z"/><path fill="var(--color6, #f0f0f0)" d="M6.254 19.706V5.345H0v21.31h6.254z"/><path fill="var(--color7, #a2001d)" d="M4.285 15.228l-1.158-2.101 1.158-2.068 1.158 2.068zm-2.316 0L.811 13.127l1.158-2.068 1.158 2.068zm2.316 5.714l-1.158-2.101 1.158-2.068 1.158 2.068zm-2.316 0L.811 18.841l1.158-2.068 1.158 2.068zm2.316 5.713l-1.158-2.101 1.158-2.068 1.158 2.068zm-2.316 0L.811 24.554l1.158-2.068 1.158 2.068zM4.285 9.514L3.127 7.413l1.158-2.068 1.158 2.068zm-2.316 0L.811 7.413l1.158-2.068 1.158 2.068z"/></symbol><symbol id="Flag_of_Egypt" viewBox="0 0 32 32"><path fill="var(--color6, #f0f0f0)" d="M0 5.334h32v21.333H0V5.334z"/><path fill="var(--color2, #d80027)" d="M0 5.334h32v7.111H0V5.334z"/><path fill="var(--color8, #000)" d="M0 19.555h32v7.111H0v-7.111z"/><path fill="var(--color3, #ff9811)" d="M20 14.768h-3a1 1 0 00-2 0h-3c0 .552.481 1 1.033 1H13a1 1 0 001 1 1 1 0 001 1h2a1 1 0 001-1 1 1 0 001-1h-.033c.552 0 1.033-.448 1.033-1z"/></symbol><symbol id="Flag_of_Kazakhstan" viewBox="0 0 32 32"><path fill="var(--color9, #82c3d2)" d="M31.448 5.517H.552A.552.552 0 000 6.069v19.862c0 .305.247.552.552.552h30.896a.552.552 0 00.552-.552V6.069a.552.552 0 00-.552-.552z"/><path fill="var(--color10, #ffe15a)" d="M3.72 8.028c-.05-.211-.062-.289.033-.384a.118.118 0 00-.167-.167c-.192.192-.146.391-.096.602-.151-.049-.308-.013-.393.093-.042.053-.123.201.029.439a.118.118 0 10.199-.128c-.057-.089-.058-.144-.043-.165.019-.024.077-.036.138-.015.039.014.131.061.131.203 0 .114-.053.218-.144.286s-.211.087-.326.052c-.142-.043-.241-.192-.241-.363a.88.88 0 01.074-.353c.008-.016.189-.391.235-.531.092-.276-.002-.415-.065-.473a.296.296 0 00-.318-.05c-.016.007-.03.018-.044.027-.014-.01-.028-.02-.044-.027a.296.296 0 00-.318.05c-.064.058-.158.197-.065.473.047.14.228.515.234.527.05.111.076.235.076.357 0 .171-.099.32-.241.363a.359.359 0 01-.47-.338c0-.143.091-.19.131-.203.061-.021.119-.009.138.015.016.02.014.075-.043.165-.035.055-.019.128.036.164s.129.019.163-.036c.151-.237.071-.386.029-.439-.084-.106-.241-.143-.393-.093.05-.211.095-.41-.097-.602a.118.118 0 00-.167.167c.095.095.083.173.032.384-.03.127-.067.285-.067.479 0 .13.046.254.122.355h-.004a.118.118 0 000 .236h.004a.59.59 0 00-.122.355c0 .195.037.353.067.479.05.211.062.289-.032.384a.118.118 0 10.168.167c.192-.192.146-.391.097-.602.151.049.308.013.392-.093.042-.053.123-.201-.029-.439a.118.118 0 10-.199.128c.057.089.058.144.043.165-.019.024-.077.036-.138.015-.039-.014-.131-.061-.131-.203 0-.114.053-.218.144-.286s.211-.087.326-.052c.142.043.241.192.241.363a.88.88 0 01-.076.357l-.776 1.745a1.103 1.103 0 00-.096.453c0 .202.092.387.236.499a.632.632 0 00-.236.499c0 .157.032.309.096.453l.776 1.745c.05.111.076.235.076.357 0 .171-.099.32-.241.363a.359.359 0 01-.47-.338c0-.143.091-.19.131-.203.061-.021.119-.009.138.015.016.02.014.075-.043.165-.035.055-.019.128.036.164s.129.019.163-.036c.151-.237.071-.386.029-.439-.084-.106-.241-.143-.393-.093.05-.211.095-.41-.097-.602a.118.118 0 00-.167.167c.095.095.083.173.032.384-.03.127-.067.285-.067.479 0 .13.046.254.122.355h-.004a.118.118 0 000 .236h.004a.59.59 0 00-.122.355c0 .195.037.353.067.48.05.211.062.289-.032.384a.118.118 0 10.168.167c.192-.192.146-.391.097-.602.151.049.308.013.392-.093.042-.053.123-.201-.029-.439a.118.118 0 10-.199.127c.057.089.058.144.043.165-.019.024-.077.036-.138.015-.039-.014-.131-.061-.131-.203 0-.114.053-.218.144-.286s.211-.087.326-.052c.142.043.241.192.241.363a.88.88 0 01-.076.357l-.776 1.745a1.103 1.103 0 00-.096.453c0 .202.092.387.236.499a.632.632 0 00-.236.499c0 .157.032.309.096.453l.776 1.745c.05.111.076.235.076.357 0 .171-.099.32-.241.363-.115.036-.234.016-.326-.052s-.144-.172-.144-.286c0-.142.091-.19.131-.203.061-.021.119-.009.138.015.016.02.014.075-.043.165a.118.118 0 10.199.127c.151-.237.071-.386.029-.439-.084-.106-.241-.143-.393-.093.05-.211.095-.41-.097-.602a.118.118 0 00-.167.167c.095.095.083.173.032.384-.03.127-.067.285-.067.479 0 .186.089.362.238.474a.593.593 0 00-.238.474c0 .195.037.353.067.48.05.211.062.289-.032.384a.118.118 0 10.168.167c.192-.192.146-.391.097-.602.151.049.308.013.392-.093.042-.053.123-.201-.029-.439a.118.118 0 10-.199.127c.057.089.058.144.043.165-.019.024-.077.036-.138.015-.039-.014-.131-.061-.131-.203 0-.114.053-.218.144-.286s.211-.087.326-.052c.142.043.241.192.241.363a.88.88 0 01-.074.353 7.084 7.084 0 00-.235.531c-.092.276.002.415.065.474a.292.292 0 00.318.05c.016-.007.03-.018.044-.027.014.01.028.02.044.027a.292.292 0 00.318-.05c.064-.058.158-.197.065-.474a7.43 7.43 0 00-.234-.527.877.877 0 01-.076-.357c0-.171.099-.32.241-.363.115-.036.234-.016.326.052s.144.172.144.286c0 .142-.091.19-.131.203-.061.021-.119.009-.138-.015-.016-.02-.014-.075.043-.165a.118.118 0 10-.199-.127c-.151.237-.071.386-.029.439.084.106.241.143.393.093-.05.211-.095.41.096.602a.118.118 0 00.168 0 .118.118 0 000-.167c-.095-.095-.083-.173-.033-.384a1.99 1.99 0 00.067-.48.595.595 0 00-.238-.474.593.593 0 00.238-.474 1.99 1.99 0 00-.067-.48c-.05-.211-.062-.289.033-.384a.118.118 0 00-.167-.167c-.192.192-.146.391-.096.602-.151-.049-.308-.013-.393.093-.042.053-.123.201.029.439a.118.118 0 10.199-.127c-.057-.089-.058-.144-.043-.165.019-.024.077-.036.138-.015.039.014.131.061.131.203 0 .114-.053.218-.144.286s-.211.087-.326.052c-.142-.043-.241-.192-.241-.363a.88.88 0 01.076-.357l.776-1.745c.064-.143.096-.296.096-.453a.633.633 0 00-.236-.499.632.632 0 00.236-.499c0-.157-.032-.309-.096-.453l-.776-1.745a.877.877 0 01-.076-.357c0-.171.099-.32.241-.363.115-.036.234-.016.326.052s.144.172.144.286c0 .142-.091.19-.131.203-.061.021-.119.009-.138-.015-.016-.02-.014-.075.043-.165a.118.118 0 10-.199-.127c-.151.237-.071.386-.029.439.084.106.241.143.393.093-.05.211-.095.41.096.602a.118.118 0 00.168 0 .118.118 0 000-.167c-.095-.095-.083-.173-.033-.384a1.99 1.99 0 00.067-.48.595.595 0 00-.122-.355h.004a.118.118 0 000-.236h-.004a.59.59 0 00.122-.355c0-.195-.037-.353-.067-.479-.05-.211-.062-.289.033-.384a.118.118 0 00-.167-.167c-.192.192-.146.391-.096.602-.151-.049-.308-.013-.393.093-.042.053-.123.201.029.439a.118.118 0 10.199-.128c-.057-.089-.058-.144-.043-.165.019-.024.077-.036.138-.015.039.014.131.061.131.203 0 .114-.053.218-.144.286s-.211.087-.326.052c-.142-.043-.241-.192-.241-.363a.88.88 0 01.076-.357l.776-1.745c.064-.143.096-.296.096-.453a.633.633 0 00-.236-.499.632.632 0 00.236-.499c0-.157-.032-.309-.096-.453l-.776-1.745a.877.877 0 01-.076-.357c0-.171.099-.32.241-.363.115-.036.234-.016.326.052s.144.172.144.286c0 .143-.091.19-.131.203-.061.021-.119.009-.138-.015-.016-.02-.014-.075.043-.165.035-.055.019-.128-.036-.164s-.128-.019-.163.036c-.151.237-.071.386-.029.439.084.106.241.143.393.093-.05.211-.095.41.096.602a.118.118 0 00.168 0 .118.118 0 000-.167c-.095-.095-.083-.173-.033-.384.03-.127.067-.285.067-.479a.593.593 0 00-.122-.355h.004a.118.118 0 000-.236h-.004a.59.59 0 00.122-.355c0-.195-.038-.353-.067-.48zm-1.202-.505c-.042-.126-.027-.198 0-.223.018-.017.046-.016.063-.009.021.01.021.025.021.032a.118.118 0 00.236 0c0-.007 0-.022.021-.032a.058.058 0 01.063.009c.028.025.042.097 0 .223-.031.092-.141.33-.203.459a6.55 6.55 0 01-.203-.459zm.203 4.887a.582.582 0 00.119.124.582.582 0 00-.119.124.582.582 0 00-.119-.124.582.582 0 00.119-.124zm0 7.106a.582.582 0 00.119.124.582.582 0 00-.119.124.582.582 0 00-.119-.124.582.582 0 00.119-.124zm.203 5.135c.042.126.027.198 0 .223-.019.017-.046.016-.063.009-.021-.009-.021-.024-.021-.032a.118.118 0 00-.236 0c0 .007 0 .022-.021.032a.06.06 0 01-.063-.009c-.028-.025-.042-.097 0-.223.031-.092.141-.33.203-.459.061.126.172.367.203.459zm-.085-1.458a.579.579 0 00-.118.124.579.579 0 00-.118-.124.579.579 0 00.118-.124.579.579 0 00.118.124zm.635-2.697l-.753 1.695-.753-1.695a.877.877 0 01-.076-.357c0-.171.099-.32.241-.363.115-.036.234-.016.326.052s.144.172.144.286c0 .142-.091.19-.131.203-.061.021-.119.009-.138-.015-.016-.02-.014-.075.043-.165a.118.118 0 10-.199-.127c-.151.237-.071.386-.029.439.086.108.247.145.401.092a.405.405 0 00.053-.023v.299a.12.12 0 00-.118-.112.118.118 0 00-.118.118c0 .077.054.211.237.253v.221a.118.118 0 00.236 0v-.221c.183-.041.237-.175.237-.253 0-.065-.053-.122-.118-.122s-.118.049-.118.114l-.001.001v-.299a.405.405 0 00.053.023c.154.054.316.017.401-.092.042-.053.123-.201-.029-.439a.118.118 0 10-.199.127c.057.089.058.144.043.165-.019.024-.077.036-.138.015-.039-.014-.131-.061-.131-.203 0-.114.053-.218.144-.286s.211-.087.326-.052c.142.043.241.192.241.363a.88.88 0 01-.076.357zm0-1.712c.05.111.076.235.076.357 0 .171-.099.32-.241.363-.115.036-.234.016-.326-.052s-.144-.172-.144-.286c0-.142.091-.19.131-.203.061-.021.119-.009.138.015.016.02.014.075-.043.165a.118.118 0 10.199.127c.151-.237.071-.386.029-.439-.086-.108-.247-.145-.401-.092a.405.405 0 00-.053.023v-.3a.118.118 0 00.236-.007c0-.077-.054-.211-.237-.253v-.221a.118.118 0 00-.236 0v.221c-.183.041-.237.175-.237.253 0 .065.053.122.118.122s.118-.049.118-.114v.299a.405.405 0 00-.053-.023c-.154-.053-.316-.017-.401.092-.042.053-.123.201.029.439a.118.118 0 10.199-.127c-.057-.089-.058-.144-.043-.165.019-.024.077-.036.138-.015.039.014.131.061.131.203 0 .114-.053.218-.144.286s-.211.087-.326.052c-.142-.043-.241-.192-.241-.363a.88.88 0 01.076-.357l.753-1.695.753 1.695zm-.635-2.697a.579.579 0 00-.118.124.579.579 0 00-.118-.124.579.579 0 00.118-.124.579.579 0 00.118.124zm.635-2.697l-.753 1.695-.753-1.695a.877.877 0 01-.076-.357c0-.171.099-.32.241-.363.115-.036.234-.016.326.052s.144.172.144.286c0 .143-.091.19-.131.203-.061.021-.119.009-.138-.015-.016-.02-.014-.075.043-.165.035-.055.019-.128-.036-.164s-.128-.019-.163.036c-.151.237-.071.386-.029.439.086.108.247.145.401.092a.405.405 0 00.053-.023v.3a.118.118 0 00-.236.007c0 .077.054.211.237.253v.221a.118.118 0 00.236 0v-.221c.183-.041.237-.175.237-.253 0-.065-.053-.122-.118-.122s-.118.049-.118.114v.001-.299a.405.405 0 00.053.023c.154.054.316.017.401-.092.042-.053.123-.201-.029-.439a.118.118 0 10-.199.128c.057.089.058.144.043.165-.019.024-.077.036-.138.015-.039-.014-.131-.061-.131-.203 0-.114.053-.218.144-.286s.211-.087.326-.052c.142.043.241.192.241.363a.88.88 0 01-.076.357zm0-1.712c.05.111.076.235.076.357 0 .171-.099.32-.241.363-.115.036-.234.016-.326-.052s-.144-.172-.144-.286c0-.143.091-.19.131-.203.061-.021.119-.009.138.015.016.02.014.075-.043.165-.035.055-.019.128.036.164s.129.019.163-.036c.151-.237.071-.386.029-.439-.086-.108-.247-.145-.401-.092a.405.405 0 00-.053.023v-.3a.12.12 0 00.118.112.118.118 0 00.118-.118c0-.077-.054-.211-.237-.253v-.221a.118.118 0 00-.236 0v.221c-.183.041-.237.175-.237.253 0 .065.053.122.118.122s.118-.049.118-.114l.001-.001v.299a.405.405 0 00-.053-.023c-.154-.054-.316-.017-.401.092-.042.053-.123.201.029.439a.118.118 0 10.199-.128c-.057-.089-.058-.144-.043-.165.019-.024.077-.036.138-.015.039.014.131.061.131.203 0 .114-.053.218-.144.286s-.211.087-.326.052c-.142-.043-.241-.192-.241-.363a.88.88 0 01.076-.357l.753-1.695.753 1.695zm-.871-2.697a.579.579 0 00.118-.124.579.579 0 00.118.124.579.579 0 00-.118.124.579.579 0 00-.118-.124zm17.169 5.708a2.85 2.85 0 11-5.7 0 2.85 2.85 0 015.7 0zm-2.637-3.634a.214.214 0 01-.428 0c0-.118.214-.641.214-.641s.214.523.214.641zm-.427 7.269a.214.214 0 01.428 0c0 .118-.214.641-.214.641s-.214-.523-.214-.641zm3.848-3.421a.214.214 0 010-.428c.118 0 .641.214.641.214s-.523.214-.641.214zm-7.269-.427a.214.214 0 010 .428c-.118 0-.641-.214-.641-.214s.523-.214.641-.214zm6.356-2.205a.213.213 0 11-.302-.302c.084-.083.605-.302.605-.302s-.219.521-.302.605zm-5.442 4.837a.213.213 0 11.302.302c-.084.083-.605.302-.605.302s.219-.521.302-.605zm5.139.303a.213.213 0 11.302-.302c.083.084.302.605.302.605s-.521-.219-.605-.302zm-4.837-5.443a.213.213 0 11-.302.302c-.083-.084-.302-.605-.302-.605s.521.219.605.302zm1.225-.718a.214.214 0 01-.395.163c-.045-.109-.048-.674-.048-.674s.398.402.443.511zm2.387 6.879a.214.214 0 01.395-.163c.045.109.048.674.048.674s-.398-.402-.443-.511zm2.246-4.633a.214.214 0 01-.163-.395c.109-.045.674-.048.674-.048s-.402.398-.511.443zm-6.879 2.387a.214.214 0 01.163.395c-.109.045-.674.048-.674.048s.402-.398.511-.443zm5.028-4.469a.214.214 0 01-.395-.163c.045-.109.443-.511.443-.511s-.003.565-.048.674zm-3.177 6.552a.214.214 0 01.395.163c-.045.109-.443.511-.443.511s.003-.565.048-.674zm4.865-1.688a.214.214 0 01.163-.395c.109.045.511.443.511.443s-.565-.003-.674-.048zm-6.552-3.177a.214.214 0 01-.163.395c-.109-.045-.511-.443-.511-.443s.565.003.674.048zm2.776-2.018a.213.213 0 11-.419.083c-.023-.116.085-.671.085-.671s.312.472.335.587zm.999 7.213a.213.213 0 11.419-.083c.023.116-.085.671-.085.671s-.312-.472-.335-.587zm3.107-4.106a.213.213 0 11-.083-.419c.116-.023.671.085.671.085s-.472.312-.587.335zm-7.213.999a.213.213 0 11.083.419c-.116.023-.671-.085-.671-.085s.472-.312.587-.335zm5.804-3.403a.214.214 0 11-.356-.238c.066-.098.534-.415.534-.415s-.113.554-.179.652zm-4.394 5.807a.214.214 0 11.356.238c-.066.098-.534.415-.534.415s.113-.554.179-.652zm5.1-.706a.214.214 0 11.238-.356c.098.066.415.534.415.534s-.554-.113-.652-.179zm-5.807-4.394a.214.214 0 11-.238.356c-.099-.066-.415-.534-.415-.534s.554.113.652.179zm1.062-.944a.214.214 0 01-.356.238c-.066-.098-.179-.652-.179-.652s.469.316.534.414zm3.683 6.281a.214.214 0 01.356-.238c.066.098.179.652.179.652s-.468-.316-.534-.414zm1.299-4.982a.214.214 0 01-.238-.356c.098-.066.652-.179.652-.179s-.316.469-.414.534zm-6.281 3.683a.214.214 0 01.238.356c-.098.066-.652.179-.652.179s.316-.468.414-.534zm4.059-5.364a.214.214 0 01-.419-.083c.023-.115.335-.587.335-.587s.108.555.085.671zm-1.837 7.046a.214.214 0 01.419.083c-.023.116-.335.587-.335.587s-.108-.555-.085-.671zm4.442-2.605a.214.214 0 01.083-.419c.115.023.587.335.587.335s-.555.108-.671.085zm-7.046-1.837a.214.214 0 01-.083.419c-.115-.023-.587-.335-.587-.335s.555-.108.671-.085z"/><path fill="var(--color10, #ffe15a)" d="M23.627 15.44a.164.164 0 00-.214.088.352.352 0 00-.009.022c-.124.289-.379.71-.637 1.107.24-.774.46-1.601.476-1.659.023-.087-.028-.176-.115-.2s-.176.027-.2.114c-.112.402-.342.931-.553 1.379.039-.499.046-.962.047-.995a.164.164 0 00-.156-.166c-.083.003-.163.063-.17.152-.209 2.879-2.98 4.167-3.25 4.286a6.711 6.711 0 00-1.395.295c-.068.023-.125.047-.183.07a.17.17 0 00-.068-.011c-1.831.133-3.292-.619-4.341-2.228a7.857 7.857 0 01-1.044-2.505.164.164 0 00-.321.061c.007.035.116.592.416 1.326a6.895 6.895 0 01-.781-1.804c-.002-.008-.007-.014-.01-.021-.005-.011-.008-.023-.015-.033-.005-.007-.011-.012-.017-.018-.009-.009-.018-.019-.028-.026-.006-.004-.013-.006-.02-.009a.166.166 0 00-.037-.014c-.009-.002-.019-.001-.028-.001s-.019-.003-.029-.001l-.006.002h-.006c-.009.002-.015.008-.023.011-.01.004-.021.008-.03.014s-.015.014-.023.021c-.007.008-.015.014-.021.023s-.009.019-.013.029l-.011.029c-.003.01-.001.021-.001.033 0 .009-.002.017-.001.026a.164.164 0 00.003.011v.001l.001.002c.101.596.342 1.213.56 1.684-.346-.393-.635-.845-.738-1.113-.003-.008-.009-.013-.013-.02-.006-.011-.011-.022-.02-.031a.156.156 0 00-.02-.016c-.01-.008-.019-.016-.031-.022-.007-.004-.015-.005-.023-.007-.012-.004-.024-.008-.037-.008-.01-.001-.02.002-.03.003s-.019 0-.028.003l-.005.003-.005.001c-.009.003-.015.01-.023.015-.009.005-.019.01-.027.017s-.014.016-.02.025c-.006.008-.013.015-.017.025l-.009.03c-.003.01-.006.019-.007.03s.002.021.003.032c.001.009 0 .018.003.028.178.574.606 1.256.941 1.737a3.768 3.768 0 01-.544-.518l-.019-.023c-.058-.069-.159-.079-.229-.023s-.081.159-.024.229a9.693 9.693 0 00.791.837l-.331-.141a.164.164 0 00-.162.282c.032.024.619.462 1.126.721-.048.003-.104-.001-.167-.005-.077-.007-.152.048-.171.125s.023.158.097.189c.012.005.167.069.358.137a.163.163 0 00-.02.293c.017.01.248.142.534.26a.163.163 0 00.044.224c.05.034 1.16.788 2.457.788.085 0 .171-.003.258-.01a.164.164 0 00-.026-.326c-.815.066-1.599-.239-2.066-.473.062-.015.097-.029.106-.032.072-.029.114-.105.099-.181s-.08-.132-.158-.134c-.19-.004-.452-.096-.678-.195.085-.043.135-.084.14-.087a.164.164 0 00-.079-.287 2.312 2.312 0 01-.247-.061.344.344 0 00.14-.135c.023-.045.023-.098.001-.144s-.063-.079-.113-.089a.96.96 0 01-.143-.045.164.164 0 00-.015-.245c-.003-.003-.13-.102-.322-.268a.164.164 0 00.07-.255 11.086 11.086 0 01-.306-.407c.058.045.116.091.173.128a.167.167 0 00.088.026.167.167 0 00.114-.046.158.158 0 00.031-.042c.099.106.203.202.313.284.014.011.032.011.048.016.046.078.095.156.145.233.993 1.527 2.392 2.346 4.071 2.395a3.424 3.424 0 01-.588.294 4.36 4.36 0 00-.161.068.165.165 0 00-.068.029c-.464.215-.656.427-.734.575s-.011.299.084.377a.168.168 0 00.274-.135c.007-.007.035-.031.124-.034.065-.005.202.009.361.022.152.012.334.027.527.037l-.262.305c-.042.049-.052.119-.023.177s.089.095.153.093c.129-.005.217-.007.275-.008.05.066.112.092.152.102.112.029.224-.016.309-.07a.414.414 0 00.178.073.52.52 0 00.296-.055.395.395 0 00.216.064h.003a.539.539 0 00.318-.123c.07.041.137.055.188.057a.486.486 0 00.279-.083c.23.046.429-.062.56-.182.06.035.117.043.162.041a.378.378 0 00.263-.139c.261.032.449-.017.557-.145a.396.396 0 00.09-.221c.725-.004.79-.4.796-.449a.165.165 0 00-.153-.181l-1.9-.114a.163.163 0 00-.169.125.518.518 0 01-.134.218c-.136.13-.356.199-.595.235a.164.164 0 00-.222-.159c-.392.152-1.027.133-1.524.099.076-.062.168-.124.241-.164a.164.164 0 00.082-.174c-.009-.051-.046-.086-.09-.108.138-.07.251-.137.359-.203a3.09 3.09 0 01.684-.333 6.483 6.483 0 011.343-.281.13.13 0 00.047-.012c.026-.011 2.047-.858 3-2.812a1.865 1.865 0 01-.04.16.163.163 0 00.267.168c-.06.159-.115.284-.159.357a.165.165 0 00.049.221.16.16 0 00.054.023c-.074.108-.148.21-.223.304a.163.163 0 00.005.21 3.827 3.827 0 01-.328.315.164.164 0 00-.049.187 1.016 1.016 0 01-.199.095.164.164 0 00-.047.289 4.61 4.61 0 01-.328.076c-.067.013-.119.067-.129.134s.021.134.08.168c.005.003.061.035.146.071-.316.127-.881.294-1.807.385-.09.009-.155.089-.147.179s.086.152.179.147c1.759-.174 2.302-.614 2.324-.633.051-.043.071-.112.051-.175a.16.16 0 00-.081-.095c.562-.177.803-.373.816-.383.062-.051.077-.14.037-.209s-.126-.099-.2-.069a.741.741 0 01-.096.025 21.568 21.568 0 001.038-.769.163.163 0 00-.207-.253l-.079.062a4.3 4.3 0 01-.299.199c.428-.486.859-1.013.982-1.164l.033-.041a.164.164 0 00-.255-.206l-.04.049c-.129.157-.265.31-.399.452.436-.79.766-1.568.814-1.683l.005-.012a.163.163 0 00-.088-.213zm-7.662 5.51l.045.006a.785.785 0 00-.135.168c-.078-.006-.148-.012-.203-.014.076-.05.174-.104.293-.159z"/></symbol><symbol id="Flag_of_Russia" viewBox="0 0 32 32"><path fill="var(--color6, #f0f0f0)" d="M0 5.333v21.333h32V5.333z"/><path fill="var(--color1, #0052b4)" d="M0 5.333h32v21.334H0V5.333z"/><path fill="var(--color6, #f0f0f0)" d="M0 5.333h32v7.111H0V5.333z"/><path fill="var(--color2, #d80027)" d="M0 19.555h32v7.111H0v-7.111z"/></symbol><symbol id="Flag_of_Saudi_Arabia" viewBox="0 0 32 32"><path fill="var(--color5, #6da544)" d="M0 5.333h32v21.334H0V5.333z"/><path fill="var(--color6, #f0f0f0)" d="M11.472 18.087c0 .768.608 1.391 1.358 1.391h4.075c0 .64.507 1.159 1.132 1.159h1.358c.625 0 1.132-.519 1.132-1.159v-1.391H11.47zm9.17-6.725v3.246a.918.918 0 01-.906.928v1.391c1.248 0 2.264-1.04 2.264-2.319v-3.246h-1.358zm-9.736 3.246a.918.918 0 01-.906.928v1.391c1.248 0 2.264-1.04 2.264-2.319v-3.246h-1.358v3.246z"/><path fill="var(--color6, #f0f0f0)" d="M18.604 11.362h1.358v3.246h-1.358v-3.246zm-2.038 1.855c0 .128-.102.232-.226.232s-.226-.104-.226-.232v-1.855h-1.358v1.855c0 .128-.102.232-.226.232s-.226-.104-.226-.232v-1.855h-1.358v1.855c0 .895.711 1.623 1.585 1.623.337 0 .649-.108.906-.292a1.55 1.55 0 001.106.279.91.91 0 01-.879.709v1.391c1.249 0 2.264-1.04 2.264-2.319v-3.246H16.57v1.855z"/><path fill="var(--color6, #f0f0f0)" d="M12.943 15.536h2.038v1.391h-2.038v-1.391z"/></symbol><symbol id="Flag_of_the_United_State" viewBox="0 0 32 32"><path fill="var(--color11, #fff7ee)" d="M32 25.889a.676.676 0 01-.674.674H.673a.676.676 0 01-.674-.674V6.112c0-.37.303-.674.674-.674h30.653c.37 0 .674.303.674.674v19.777z"/><path fill="var(--color12, #e02424)" d="M31.326 5.438H13.085V7.47h18.914V6.112a.676.676 0 00-.674-.674zm-18.24 7.637v1.268c0 .42-.342.764-.759.764h19.674v-2.032H13.087zM0 16.893h32v2.032H0v-2.032z"/><path fill="var(--color8, #000)" opacity=".1" d="M0 16.893h2.055v2.032H0v-2.032z"/><path fill="var(--color12, #e02424)" d="M0 20.712h32v2.032H0v-2.032zm32 5.177v-1.358H0v1.358c0 .371.303.674.674.674h30.653c.37 0 .674-.303.674-.674zM13.085 9.257h18.914v2.032H13.085V9.257z"/><path fill="var(--color13, #0853a4)" d="M.674 5.438A.676.676 0 000 6.112v8.995h13.045a.764.764 0 00.759-.764V5.438H.674z"/><path fill="var(--color8, #000)" opacity=".1" d="M2.796 5.438H.674A.676.676 0 000 6.112v8.995h2.122V6.112c0-.37.303-.674.674-.674z"/><path fill="var(--color14, #fff)" d="M2.982 8.13a.103.103 0 01-.045-.011l-.184-.099-.184.099a.09.09 0 01-.045.011.097.097 0 01-.095-.116l.035-.21-.149-.148a.1.1 0 01.054-.168l.205-.031.092-.191c.016-.034.05-.055.086-.055s.07.021.086.055l.092.191.205.031c.036.005.067.031.078.067s.002.075-.025.101l-.148.148.035.21a.103.103 0 01-.038.097.1.1 0 01-.057.019zm0 1.714a.103.103 0 01-.045-.011l-.184-.099-.184.099a.09.09 0 01-.045.011.097.097 0 01-.095-.116l.035-.21-.149-.148a.1.1 0 01.054-.168l.205-.03.092-.191c.016-.034.05-.055.086-.055s.07.021.086.055l.092.191.205.03c.036.006.067.032.078.067s.002.075-.025.101l-.148.148.035.21a.102.102 0 01-.038.097.093.093 0 01-.057.019zm0 1.714a.103.103 0 01-.045-.011l-.184-.099-.184.099a.09.09 0 01-.045.011.098.098 0 01-.095-.116l.035-.21-.149-.148a.1.1 0 01.054-.168l.205-.03.092-.191c.016-.034.05-.055.086-.055s.07.021.086.055l.092.191.205.03c.036.005.067.032.078.067s.002.075-.025.101l-.148.148.035.21a.103.103 0 01-.038.097.1.1 0 01-.057.019zm0 1.714a.103.103 0 01-.045-.011l-.184-.099-.184.099a.09.09 0 01-.045.011.098.098 0 01-.095-.116l.035-.21-.149-.148a.1.1 0 01.054-.168l.205-.03.092-.191c.016-.034.05-.055.086-.055s.07.021.086.055l.092.191.205.03c.036.005.067.032.078.067s.002.075-.025.101l-.148.148.035.21a.102.102 0 01-.038.097.093.093 0 01-.057.019zM1.897 7.274a.103.103 0 01-.045-.011l-.184-.099-.184.099a.09.09 0 01-.045.011.098.098 0 01-.095-.116l.035-.21L1.23 6.8a.1.1 0 01.054-.168l.205-.03.092-.191c.016-.034.05-.055.086-.055s.07.021.086.055l.092.191.205.03c.036.005.067.032.078.067s.002.075-.024.101l-.149.148.035.21a.103.103 0 01-.038.097.093.093 0 01-.057.019zm0 1.713a.103.103 0 01-.045-.011l-.184-.099-.184.099a.09.09 0 01-.045.011.098.098 0 01-.095-.116l.035-.21-.149-.148a.1.1 0 01.054-.168l.205-.031.092-.191c.016-.034.05-.055.086-.055s.07.021.086.055l.092.191.205.031c.036.005.067.031.078.067s.002.075-.024.101l-.149.148.035.21a.103.103 0 01-.038.097.1.1 0 01-.057.019zm0 1.714a.103.103 0 01-.045-.011l-.184-.099-.184.099a.09.09 0 01-.045.011.098.098 0 01-.095-.116l.035-.21-.149-.148a.1.1 0 01.054-.168l.205-.03.092-.191c.016-.034.05-.055.086-.055s.07.021.086.055l.092.191.205.03c.036.005.067.031.078.067s.002.075-.024.101l-.149.148.035.21a.102.102 0 01-.038.097.1.1 0 01-.057.019zm0 1.714a.103.103 0 01-.045-.011l-.184-.099-.184.099a.09.09 0 01-.045.011.098.098 0 01-.095-.116l.035-.21-.149-.148a.1.1 0 01.054-.168l.205-.03.092-.191c.016-.034.05-.055.086-.055s.07.021.086.055l.092.191.205.03c.036.005.067.031.078.067s.002.075-.024.101l-.149.148.035.21a.103.103 0 01-.038.097.093.093 0 01-.057.019zm0 1.713a.103.103 0 01-.045-.011l-.184-.099-.184.099a.09.09 0 01-.045.011.098.098 0 01-.095-.116l.035-.21-.149-.148a.1.1 0 01.054-.168l.205-.03.092-.191c.016-.034.05-.055.086-.055s.07.021.086.055l.092.191.205.03c.036.005.067.031.078.067s.002.075-.024.101l-.149.148.035.21a.102.102 0 01-.038.097.093.093 0 01-.057.019zM5.09 8.13a.103.103 0 01-.045-.011l-.184-.099-.184.099a.09.09 0 01-.045.011.097.097 0 01-.095-.116l.035-.21-.149-.148a.1.1 0 01.054-.168l.205-.031.092-.191c.016-.034.05-.055.086-.055s.07.021.086.055l.092.191.205.031c.036.005.067.031.078.067s.002.075-.024.101l-.149.148.035.21a.103.103 0 01-.038.097.1.1 0 01-.057.019zm0 1.714a.103.103 0 01-.045-.011l-.184-.099-.184.099a.09.09 0 01-.045.011.097.097 0 01-.095-.116l.035-.21-.149-.148a.1.1 0 01.054-.168l.205-.03.092-.191c.016-.034.05-.055.086-.055s.07.021.086.055l.092.191.205.03a.1.1 0 01.054.168l-.149.148.035.21a.102.102 0 01-.038.097.093.093 0 01-.057.019zm0 1.714a.103.103 0 01-.045-.011l-.184-.099-.184.099a.09.09 0 01-.045.011.098.098 0 01-.095-.116l.035-.21-.149-.148a.1.1 0 01.054-.168l.205-.03.092-.191c.016-.034.05-.055.086-.055s.07.021.086.055l.092.191.205.03c.036.005.067.032.078.067s.002.075-.024.101l-.149.148.035.21a.103.103 0 01-.038.097.1.1 0 01-.057.019zm0 1.714a.103.103 0 01-.045-.011l-.184-.099-.184.099a.09.09 0 01-.045.011.098.098 0 01-.095-.116l.035-.21-.149-.148a.1.1 0 01.054-.168l.205-.03.092-.191c.016-.034.05-.055.086-.055s.07.021.086.055l.092.191.205.03c.036.005.067.032.078.067s.002.075-.024.101l-.149.148.035.21a.102.102 0 01-.038.097.093.093 0 01-.057.019zM4.004 7.274a.103.103 0 01-.045-.011l-.184-.099-.184.099a.09.09 0 01-.045.011.098.098 0 01-.095-.116l.035-.21-.148-.148a.1.1 0 01.054-.168l.205-.03.092-.191a.096.096 0 01.173 0l.092.191.205.03c.036.005.067.032.078.067s.002.075-.024.101l-.149.148.035.21a.103.103 0 01-.038.097.093.093 0 01-.057.019zm0 1.713a.103.103 0 01-.045-.011l-.184-.099-.184.099a.09.09 0 01-.045.011.098.098 0 01-.095-.116l.035-.21-.148-.148a.1.1 0 01.054-.168l.205-.031.092-.191a.096.096 0 01.173 0l.092.191.205.031c.036.005.067.031.078.067s.002.075-.024.101l-.149.148.035.21a.103.103 0 01-.038.097.1.1 0 01-.057.019zm0 1.714a.103.103 0 01-.045-.011l-.184-.099-.184.099a.09.09 0 01-.045.011.098.098 0 01-.095-.116l.035-.21-.148-.148a.1.1 0 01.054-.168l.205-.03.092-.191a.096.096 0 01.173 0l.092.191.205.03c.036.005.067.031.078.067s.002.075-.024.101l-.149.148.035.21a.102.102 0 01-.038.097.1.1 0 01-.057.019zm0 1.714a.103.103 0 01-.045-.011l-.184-.099-.184.099a.09.09 0 01-.045.011.098.098 0 01-.095-.116l.035-.21-.148-.148a.1.1 0 01.054-.168l.205-.03.092-.191a.096.096 0 01.173 0l.092.191.205.03c.036.005.067.031.078.067s.002.075-.024.101l-.149.148.035.21a.103.103 0 01-.038.097.093.093 0 01-.057.019zm0 1.713a.103.103 0 01-.045-.011l-.184-.099-.184.099a.09.09 0 01-.045.011.098.098 0 01-.095-.116l.035-.21-.148-.148a.1.1 0 01.054-.168l.205-.03.092-.191a.096.096 0 01.173 0l.092.191.205.03c.036.005.067.031.078.067s.002.075-.024.101l-.149.148.035.21a.102.102 0 01-.038.097.093.093 0 01-.057.019zM7.197 8.13a.103.103 0 01-.045-.011l-.184-.099-.184.099a.088.088 0 01-.045.011.097.097 0 01-.095-.116l.035-.21-.149-.148a.1.1 0 01.054-.168l.205-.031.092-.191c.016-.034.05-.055.086-.055s.07.021.086.055l.092.191.205.031c.036.005.067.031.078.067s.002.075-.024.101l-.149.148.035.21a.103.103 0 01-.038.097.1.1 0 01-.057.019zm0 1.714a.103.103 0 01-.045-.011l-.184-.099-.184.099a.088.088 0 01-.045.011.097.097 0 01-.095-.116l.035-.21-.149-.148a.1.1 0 01.054-.168l.205-.03.092-.191c.016-.034.05-.055.086-.055s.07.021.086.055l.092.191.205.03a.1.1 0 01.054.168l-.149.148.035.21a.102.102 0 01-.038.097.093.093 0 01-.057.019zm0 1.714a.103.103 0 01-.045-.011l-.184-.099-.184.099a.088.088 0 01-.045.011.098.098 0 01-.095-.116l.035-.21-.149-.148a.1.1 0 01.054-.168l.205-.03.092-.191c.016-.034.05-.055.086-.055s.07.021.086.055l.092.191.205.03c.036.005.067.032.078.067s.002.075-.024.101l-.149.148.035.21a.103.103 0 01-.038.097.1.1 0 01-.057.019zm0 1.714a.103.103 0 01-.045-.011l-.184-.099-.184.099a.088.088 0 01-.045.011.098.098 0 01-.095-.116l.035-.21-.149-.148a.1.1 0 01.054-.168l.205-.03.092-.191c.016-.034.05-.055.086-.055s.07.021.086.055l.092.191.205.03c.036.005.067.032.078.067s.002.075-.024.101l-.149.148.035.21a.102.102 0 01-.038.097.093.093 0 01-.057.019zM6.111 7.274a.103.103 0 01-.045-.011l-.184-.099-.184.099a.088.088 0 01-.045.011.098.098 0 01-.095-.116l.035-.21-.149-.148a.1.1 0 01.054-.168l.205-.03.092-.191a.096.096 0 01.173 0l.092.191.205.03a.099.099 0 01.054.168l-.149.148.035.21a.103.103 0 01-.038.097.093.093 0 01-.057.019zm0 1.713a.103.103 0 01-.045-.011l-.184-.099-.184.099a.088.088 0 01-.045.011.098.098 0 01-.095-.116l.035-.21-.149-.148a.1.1 0 01.054-.168l.205-.031.092-.191a.096.096 0 01.173 0l.092.191.205.031c.036.005.066.031.078.067s.002.075-.024.101l-.149.148.035.21a.103.103 0 01-.038.097.1.1 0 01-.057.019zm0 1.714a.103.103 0 01-.045-.011l-.184-.099-.184.099a.088.088 0 01-.045.011.098.098 0 01-.095-.116l.035-.21-.149-.148a.1.1 0 01.054-.168l.205-.03.092-.191a.096.096 0 01.173 0l.092.191.205.03c.036.005.066.031.078.067s.002.075-.024.101l-.149.148.035.21a.102.102 0 01-.038.097.1.1 0 01-.057.019zm0 1.714a.103.103 0 01-.045-.011l-.184-.099-.184.099a.088.088 0 01-.045.011.098.098 0 01-.095-.116l.035-.21-.149-.148a.1.1 0 01.054-.168l.205-.03.092-.191a.096.096 0 01.173 0l.092.191.205.03c.036.005.066.031.078.067s.002.075-.024.101l-.149.148.035.21a.103.103 0 01-.038.097.093.093 0 01-.057.019zm0 1.713a.103.103 0 01-.045-.011l-.184-.099-.184.099a.088.088 0 01-.045.011.098.098 0 01-.095-.116l.035-.21-.149-.148a.1.1 0 01.054-.168l.205-.03.092-.191a.096.096 0 01.173 0l.092.191.205.03c.036.005.066.031.078.067s.002.075-.024.101l-.149.148.035.21a.102.102 0 01-.038.097.093.093 0 01-.057.019zM9.304 8.13a.103.103 0 01-.045-.011l-.184-.099-.184.099a.09.09 0 01-.045.011.097.097 0 01-.095-.116l.035-.21-.149-.148a.1.1 0 01.054-.168l.205-.031.092-.191c.016-.034.05-.055.086-.055s.07.021.086.055l.092.191.205.031c.036.005.066.031.078.067s.002.075-.024.101l-.149.148.035.21a.103.103 0 01-.038.097.1.1 0 01-.056.019zm0 1.714a.103.103 0 01-.045-.011l-.184-.099-.184.099a.09.09 0 01-.045.011.097.097 0 01-.095-.116l.035-.21-.149-.148a.1.1 0 01.054-.168l.205-.03.092-.191c.016-.034.05-.055.086-.055s.07.021.086.055l.092.191.205.03a.1.1 0 01.054.168l-.149.148.035.21a.102.102 0 01-.038.097.092.092 0 01-.056.019zm0 1.714a.103.103 0 01-.045-.011l-.184-.099-.184.099a.09.09 0 01-.045.011.098.098 0 01-.095-.116l.035-.21-.149-.148a.1.1 0 01.054-.168l.205-.03.092-.191c.016-.034.05-.055.086-.055s.07.021.086.055l.092.191.205.03a.099.099 0 01.054.168l-.149.148.035.21a.103.103 0 01-.038.097.1.1 0 01-.056.019zm0 1.714a.103.103 0 01-.045-.011l-.184-.099-.184.099a.09.09 0 01-.045.011.098.098 0 01-.095-.116l.035-.21-.149-.148a.1.1 0 01.054-.168l.205-.03.092-.191c.016-.034.05-.055.086-.055s.07.021.086.055l.092.191.205.03a.099.099 0 01.054.168l-.149.148.035.21a.102.102 0 01-.038.097.092.092 0 01-.056.019zM8.218 7.274a.103.103 0 01-.045-.011l-.184-.099-.184.099a.09.09 0 01-.045.011.098.098 0 01-.095-.116l.035-.21-.149-.148a.1.1 0 01.054-.168l.205-.03.092-.191c.016-.034.05-.055.086-.055s.07.021.086.055l.092.191.205.03c.036.005.067.032.078.067s.002.075-.024.101l-.149.148.035.21a.103.103 0 01-.038.097.093.093 0 01-.057.019zm0 1.713a.103.103 0 01-.045-.011l-.184-.099-.184.099a.09.09 0 01-.045.011.098.098 0 01-.095-.116l.035-.21-.149-.148a.1.1 0 01.054-.168l.205-.031.092-.191c.016-.034.05-.055.086-.055s.07.021.086.055l.092.191.205.031c.036.005.067.031.078.067s.002.075-.024.101l-.149.148.035.21a.103.103 0 01-.038.097.1.1 0 01-.057.019zm0 1.714a.103.103 0 01-.045-.011l-.184-.099-.184.099a.09.09 0 01-.045.011.098.098 0 01-.095-.116l.035-.21-.149-.148a.1.1 0 01.054-.168l.205-.03.092-.191c.016-.034.05-.055.086-.055s.07.021.086.055l.092.191.205.03c.036.005.067.031.078.067s.002.075-.024.101l-.149.148.035.21a.102.102 0 01-.038.097.1.1 0 01-.057.019zm0 1.714a.103.103 0 01-.045-.011l-.184-.099-.184.099a.09.09 0 01-.045.011.098.098 0 01-.095-.116l.035-.21-.149-.148a.1.1 0 01.054-.168l.205-.03.092-.191c.016-.034.05-.055.086-.055s.07.021.086.055l.092.191.205.03c.036.005.067.031.078.067s.002.075-.024.101l-.149.148.035.21a.103.103 0 01-.038.097.093.093 0 01-.057.019zm0 1.713a.103.103 0 01-.045-.011l-.184-.099-.184.099a.09.09 0 01-.045.011.098.098 0 01-.095-.116l.035-.21-.149-.148a.1.1 0 01.054-.168l.205-.03.092-.191c.016-.034.05-.055.086-.055s.07.021.086.055l.092.191.205.03c.036.005.067.031.078.067s.002.075-.024.101l-.149.148.035.21a.102.102 0 01-.038.097.093.093 0 01-.057.019zm3.193-5.998a.103.103 0 01-.045-.011l-.184-.099-.184.099a.09.09 0 01-.045.011.097.097 0 01-.095-.116l.035-.21-.149-.148a.1.1 0 01.054-.168l.205-.031.092-.191c.016-.034.05-.055.086-.055s.07.021.086.055l.092.191.205.031c.036.005.066.031.078.067s.002.075-.024.101l-.149.148.035.21a.103.103 0 01-.038.097.1.1 0 01-.057.019zm0 1.714a.103.103 0 01-.045-.011l-.184-.099-.184.099a.09.09 0 01-.045.011.097.097 0 01-.095-.116l.035-.21-.149-.148a.1.1 0 01.054-.168l.205-.03.092-.191c.016-.034.05-.055.086-.055s.07.021.086.055l.092.191.205.03a.1.1 0 01.054.168l-.149.148.035.21a.102.102 0 01-.038.097.093.093 0 01-.057.019zm0 1.714a.103.103 0 01-.045-.011l-.184-.099-.184.099a.09.09 0 01-.045.011.098.098 0 01-.095-.116l.035-.21-.149-.148a.1.1 0 01.054-.168l.205-.03.092-.191c.016-.034.05-.055.086-.055s.07.021.086.055l.092.191.205.03a.099.099 0 01.054.168l-.149.148.035.21a.103.103 0 01-.038.097.1.1 0 01-.057.019zm0 1.714a.103.103 0 01-.045-.011l-.184-.099-.184.099a.09.09 0 01-.045.011.098.098 0 01-.095-.116l.035-.21-.149-.148a.1.1 0 01.054-.168l.205-.03.092-.191c.016-.034.05-.055.086-.055s.07.021.086.055l.092.191.205.03a.099.099 0 01.054.168l-.149.148.035.21a.102.102 0 01-.038.097.093.093 0 01-.057.019zm-1.086-5.998a.103.103 0 01-.045-.011l-.184-.099-.184.099a.09.09 0 01-.045.011.098.098 0 01-.095-.116l.035-.21-.148-.148a.1.1 0 01.054-.168l.205-.03.092-.191c.016-.034.05-.055.086-.055s.07.021.086.055l.092.191.205.03a.099.099 0 01.054.168l-.149.148.035.21a.103.103 0 01-.038.097.093.093 0 01-.057.019zm0 1.713a.103.103 0 01-.045-.011l-.184-.099-.184.099a.09.09 0 01-.045.011.098.098 0 01-.095-.116l.035-.21-.148-.148a.1.1 0 01.054-.168l.205-.031.092-.191c.016-.034.05-.055.086-.055s.07.021.086.055l.092.191.205.031c.036.005.066.031.078.067s.002.075-.024.101l-.149.148.035.21a.103.103 0 01-.038.097.1.1 0 01-.057.019zm0 1.714a.103.103 0 01-.045-.011l-.184-.099-.184.099a.09.09 0 01-.045.011.098.098 0 01-.095-.116l.035-.21-.148-.148a.1.1 0 01.054-.168l.205-.03.092-.191c.016-.034.05-.055.086-.055s.07.021.086.055l.092.191.205.03c.036.005.066.031.078.067s.002.075-.024.101l-.149.148.035.21a.102.102 0 01-.038.097.1.1 0 01-.057.019zm0 1.714a.103.103 0 01-.045-.011l-.184-.099-.184.099a.09.09 0 01-.045.011.098.098 0 01-.095-.116l.035-.21-.148-.148a.1.1 0 01.054-.168l.205-.03.092-.191c.016-.034.05-.055.086-.055s.07.021.086.055l.092.191.205.03c.036.005.066.031.078.067s.002.075-.024.101l-.149.148.035.21a.103.103 0 01-.038.097.093.093 0 01-.057.019zm0 1.713a.103.103 0 01-.045-.011l-.184-.099-.184.099a.09.09 0 01-.045.011.098.098 0 01-.095-.116l.035-.21-.148-.148a.1.1 0 01.054-.168l.205-.03.092-.191c.016-.034.05-.055.086-.055s.07.021.086.055l.092.191.205.03c.036.005.066.031.078.067s.002.075-.024.101l-.149.148.035.21a.102.102 0 01-.038.097.093.093 0 01-.057.019zm2.108-6.854a.103.103 0 01-.045-.011l-.184-.099-.184.099a.09.09 0 01-.045.011.098.098 0 01-.095-.116l.035-.21-.149-.148a.1.1 0 01.054-.168l.205-.03.092-.191c.016-.034.05-.055.086-.055s.07.021.086.055l.092.191.205.03a.099.099 0 01.054.168l-.149.148.035.21a.103.103 0 01-.038.097.092.092 0 01-.056.019zm0 1.713a.103.103 0 01-.045-.011l-.184-.099-.184.099a.09.09 0 01-.045.011.098.098 0 01-.095-.116l.035-.21-.149-.148a.1.1 0 01.054-.168l.205-.031.092-.191c.016-.034.05-.055.086-.055s.07.021.086.055l.092.191.205.031c.036.005.066.031.078.067s.002.075-.024.101l-.149.148.035.21a.103.103 0 01-.038.097.1.1 0 01-.056.019zm0 1.714a.103.103 0 01-.045-.011l-.184-.099-.184.099a.09.09 0 01-.045.011.098.098 0 01-.095-.116l.035-.21-.149-.148a.1.1 0 01.054-.168l.205-.03.092-.191c.016-.034.05-.055.086-.055s.07.021.086.055l.092.191.205.03c.036.005.066.031.078.067s.002.075-.024.101l-.149.148.035.21a.102.102 0 01-.038.097.1.1 0 01-.056.019zm0 1.714a.103.103 0 01-.045-.011l-.184-.099-.184.099a.09.09 0 01-.045.011.098.098 0 01-.095-.116l.035-.21-.149-.148a.1.1 0 01.054-.168l.205-.03.092-.191c.016-.034.05-.055.086-.055s.07.021.086.055l.092.191.205.03c.036.005.066.031.078.067s.002.075-.024.101l-.149.148.035.21a.103.103 0 01-.038.097.092.092 0 01-.056.019zm0 1.713a.103.103 0 01-.045-.011l-.184-.099-.184.099a.09.09 0 01-.045.011.098.098 0 01-.095-.116l.035-.21-.149-.148a.1.1 0 01.054-.168l.205-.03.092-.191c.016-.034.05-.055.086-.055s.07.021.086.055l.092.191.205.03c.036.005.066.031.078.067s.002.075-.024.101l-.149.148.035.21a.102.102 0 01-.038.097.092.092 0 01-.056.019z"/><path fill="var(--color8, #000)" opacity=".1" d="M0 20.712h2.055v2.032H0v-2.032zm2.055 5.177v-1.358H0v1.358c0 .371.303.674.674.674h2.055a.676.676 0 01-.674-.674z"/></symbol><symbol id="Flag_of_Turkey" viewBox="0 0 32 32"><path fill="var(--color2, #d80027)" d="M0 5.334h32v21.333H0V5.334z"/><path fill="var(--color6, #f0f0f0)" d="M15.451 13.549l1.1 1.515 1.781-.577-1.101 1.514 1.099 1.515-1.78-.58-1.101 1.514.001-1.872-1.78-.58 1.781-.577z"/><path fill="var(--color6, #f0f0f0)" d="M12.45 19.788a3.788 3.788 0 111.802-7.121 4.662 4.662 0 100 6.666 3.773 3.773 0 01-1.802.455z"/></symbol><symbol id="Flag_of_Ukraine" viewBox="0 0 32 32"><path fill="var(--color15, #ffda44)" d="M0 5.334h32v21.333H0V5.334z"/><path fill="var(--color4, #338af3)" d="M0 5.334h32V16H0V5.334z"/></symbol><symbol id="Flag_of_Uzbekistan" viewBox="0 0 32 32"><path fill="var(--color16, #82afff)" d="M32 12.506H0V6.069c0-.305.247-.552.552-.552h30.896c.305 0 .552.247.552.552v6.437z"/><path fill="var(--color17, #73af00)" d="M31.448 26.483H.552A.552.552 0 010 25.931v-6.437h32v6.437a.552.552 0 01-.552.552z"/><path fill="var(--color18, #f5f5f5)" d="M0 12.506h32v6.988H0v-6.988z"/><path fill="var(--color19, #ff4b55)" d="M0 11.885h32v.871H0v-.871zm0 7.358h32v.871H0v-.871z"/><path fill="var(--color18, #f5f5f5)" d="M7.093 10.754a2.042 2.042 0 01-2.045-2.039c0-1.13.915-2.047 2.045-2.047h.013a.063.063 0 00.031-.119A2.431 2.431 0 005.97 6.26a2.464 2.464 0 00-2.435 2.481 2.451 2.451 0 003.604 2.131c.058-.031.035-.12-.031-.119h-.015zm1.602-.563l-.091.274-.289.002c-.037 0-.053.048-.023.07l.232.171-.087.275a.039.039 0 00.06.043l.235-.168.235.168c.03.022.071-.008.06-.043l-.087-.275.232-.171a.039.039 0 00-.023-.07l-.289-.002-.091-.274a.04.04 0 00-.074 0zm2.033 0l-.091.274-.289.002c-.037 0-.053.048-.023.07l.232.171-.087.275a.039.039 0 00.06.043l.235-.168.235.168c.03.022.071-.008.06-.043l-.087-.275.232-.171a.039.039 0 00-.023-.07l-.289-.002-.091-.274a.04.04 0 00-.074 0zm0-1.899l-.091.274-.289.002c-.037 0-.053.048-.023.07l.232.171-.087.275a.039.039 0 00.06.043l.235-.168.235.168c.03.022.071-.008.06-.043l-.087-.275.232-.171a.039.039 0 00-.023-.07l-.289-.002-.091-.274a.039.039 0 00-.074 0zm2.034 0l-.091.274-.289.002c-.037 0-.053.048-.023.07l.232.171-.087.275a.039.039 0 00.06.043l.235-.168.235.168c.03.022.071-.008.06-.043l-.087-.275.232-.171a.039.039 0 00-.023-.07l-.289-.002-.091-.274a.039.039 0 00-.074 0zm2.034 0l-.091.274-.289.002c-.037 0-.053.048-.023.07l.232.171-.087.275a.039.039 0 00.06.043l.235-.168.235.168c.03.022.071-.008.06-.043l-.087-.275.232-.171a.039.039 0 00-.023-.07l-.289-.002-.091-.274a.039.039 0 00-.074 0zm2.034 0l-.091.274-.289.002c-.037 0-.053.048-.023.07l.232.171-.087.275a.039.039 0 00.06.043l.235-.168.235.168c.03.022.071-.008.06-.043l-.087-.275.232-.171a.039.039 0 00-.023-.07l-.289-.002-.091-.274a.039.039 0 00-.074 0zm-4.068 1.899l-.091.274-.289.002c-.037 0-.053.048-.023.07l.232.171-.087.275a.039.039 0 00.06.043l.235-.168.235.168c.03.022.071-.008.06-.043l-.087-.275.232-.171a.039.039 0 00-.023-.07l-.289-.002-.091-.274a.04.04 0 00-.074 0zm0-3.797l-.091.274-.289.002c-.037 0-.053.048-.023.07l.232.171-.087.275a.039.039 0 00.06.043l.235-.168.235.168c.03.022.071-.008.06-.043l-.087-.275.232-.171a.039.039 0 00-.023-.07l-.289-.002-.091-.274a.04.04 0 00-.074 0zm2.034 3.797l-.091.274-.289.002c-.037 0-.053.048-.023.07l.232.171-.087.275a.039.039 0 00.06.043l.235-.168.235.168c.03.022.071-.008.06-.043l-.087-.275.232-.171a.039.039 0 00-.023-.07l-.289-.002-.091-.274a.04.04 0 00-.074 0zm2.034 0l-.091.274-.289.002c-.037 0-.053.048-.023.07l.232.171-.087.275a.039.039 0 00.06.043l.235-.168.235.168c.03.022.071-.008.06-.043l-.087-.275.232-.171a.039.039 0 00-.023-.07l-.289-.002-.091-.274a.04.04 0 00-.074 0zm-2.034-3.797l-.091.274-.289.002c-.037 0-.053.048-.023.07l.232.171-.087.275a.039.039 0 00.06.043l.235-.168.235.168c.03.022.071-.008.06-.043l-.087-.275.232-.171a.039.039 0 00-.023-.07l-.289-.002-.091-.274a.04.04 0 00-.074 0zm2.034 0l-.091.274-.289.002c-.037 0-.053.048-.023.07l.232.171-.087.275a.039.039 0 00.06.043l.235-.168.235.168c.03.022.071-.008.06-.043l-.087-.275.232-.171a.039.039 0 00-.023-.07l-.289-.002-.091-.274a.04.04 0 00-.074 0z"/></symbol></defs></svg>